<svg width="45" height="45" viewBox="0 0 45 45" fill="none" xmlns="http://www.w3.org/2000/svg">
<ellipse cx="22.4999" cy="22.5" rx="22.4999" ry="22.5" fill="white"/>
<path d="M22.4994 13.2767C25.5033 13.2767 25.8591 13.288 27.0455 13.3422C28.1425 13.3922 28.7381 13.5753 29.1345 13.7295C29.6599 13.9337 30.0345 14.1772 30.4281 14.5708C30.8217 14.9645 31.0657 15.3392 31.2695 15.8645C31.4237 16.2609 31.6068 16.8565 31.6568 17.9535C31.7109 19.1399 31.7222 19.4956 31.7222 22.4996C31.7222 25.5036 31.711 25.8592 31.6568 27.0456C31.6068 28.1426 31.4237 28.7382 31.2695 29.1346C31.0653 29.66 30.8218 30.0346 30.4281 30.4283C30.0345 30.8219 29.6598 31.0659 29.1345 31.2696C28.7381 31.4238 28.1425 31.6069 27.0455 31.6569C25.8592 31.711 25.5034 31.7224 22.4994 31.7224C19.4954 31.7224 19.1398 31.7111 17.9534 31.6569C16.8565 31.6069 16.2608 31.4238 15.8644 31.2696C15.3391 31.0653 14.9645 30.8219 14.5708 30.4283C14.1772 30.0346 13.9332 29.6599 13.7294 29.1346C13.5752 28.7382 13.3922 28.1426 13.3421 27.0456C13.288 25.8593 13.2767 25.5035 13.2767 22.4996C13.2767 19.4957 13.2879 19.14 13.3421 17.9535C13.3922 16.8565 13.5752 16.2609 13.7294 15.8645C13.9336 15.3391 14.1771 14.9645 14.5708 14.5708C14.9645 14.1772 15.3392 13.9332 15.8644 13.7295C16.2608 13.5753 16.8565 13.3922 17.9534 13.3422C19.1397 13.2885 19.4955 13.2767 22.4994 13.2767ZM22.4994 11.25C19.4441 11.25 19.0609 11.2631 17.861 11.3176C16.6634 11.3721 15.8459 11.5625 15.1303 11.8406C14.3904 12.1283 13.7633 12.513 13.1378 13.1383C12.5125 13.7638 12.1274 14.3909 11.8401 15.1309C11.5619 15.8465 11.3716 16.6644 11.3171 17.8615C11.2626 19.0615 11.2495 19.4447 11.2495 22.5C11.2495 25.5552 11.2626 25.9385 11.3171 27.1384C11.3716 28.336 11.562 29.1535 11.8401 29.8691C12.1278 30.609 12.5125 31.2361 13.1378 31.8616C13.7633 32.487 14.3909 32.8716 15.1303 33.1593C15.846 33.4375 16.6639 33.6278 17.861 33.6823C19.0609 33.7369 19.4441 33.7499 22.4994 33.7499C25.5547 33.7499 25.938 33.7369 27.1378 33.6823C28.3354 33.6278 29.1529 33.4374 29.8685 33.1593C30.6084 32.8715 31.2356 32.487 31.861 31.8616C32.4865 31.2361 32.8711 30.6085 33.1587 29.8691C33.4369 29.1535 33.6272 28.3355 33.6817 27.1384C33.7363 25.9385 33.7493 25.5553 33.7493 22.5C33.7493 19.4446 33.7363 19.0614 33.6817 17.8615C33.6272 16.6639 33.4368 15.8464 33.1587 15.1309C32.871 14.3909 32.4864 13.7638 31.861 13.1383C31.2356 12.513 30.608 12.1283 29.8685 11.8406C29.1529 11.5624 28.335 11.3721 27.1378 11.3176C25.9381 11.2631 25.5547 11.25 22.4994 11.25ZM22.4994 16.723C19.3088 16.723 16.7225 19.3094 16.7225 22.5C16.7225 25.6906 19.3088 28.277 22.4994 28.277C25.69 28.277 28.2764 25.6906 28.2764 22.5C28.2764 19.3094 25.69 16.723 22.4994 16.723ZM22.4994 26.2502C20.4285 26.2502 18.7493 24.5715 18.7493 22.5C18.7493 20.4286 20.4285 18.7499 22.4994 18.7499C24.5703 18.7499 26.2496 20.4286 26.2496 22.5C26.2496 24.5715 24.5703 26.2502 22.4994 26.2502ZM28.5046 15.1449C27.7588 15.1449 27.1546 15.7491 27.1546 16.4949C27.1546 17.2407 27.7588 17.845 28.5046 17.845C29.2503 17.845 29.8546 17.2407 29.8546 16.4949C29.8546 15.7491 29.2504 15.1449 28.5046 15.1449Z" fill="#FF6900"/>
</svg>
