<svg width="370" height="81" viewBox="0 0 370 81" fill="none" xmlns="http://www.w3.org/2000/svg">
<path d="M231.384 15.5133C219.561 15.5133 207.357 24.5431 207.357 39.68V39.8009C207.357 53.5068 217.635 63.8466 231.27 63.8466C243.093 63.8466 255.297 54.8169 255.297 39.559C255.297 25.8532 245.019 15.5133 231.384 15.5133ZM247.708 39.68V39.8009C247.708 51.4106 241.3 58.9085 231.384 58.9085C221.468 58.9085 215.137 51.3501 215.137 39.5389C215.137 30.3076 219.371 20.4111 231.251 20.4111C241.243 20.4111 247.708 27.9695 247.708 39.6598V39.68ZM370 16.6219L344.256 45.2631V62.7381H335.961C335.961 62.7381 336.762 62.335 336.762 56.9131V45.2832C336.762 45.2832 322.174 26.0144 319.886 23.1926C315.709 18.0126 313.554 16.6219 313.554 16.6219H323.318L341.892 40.4862L363.783 16.6219H369.981H370ZM304.783 56.8526C303.543 55.3812 297.117 47.2988 294.733 44.1747C301.751 42.7033 308.387 38.0675 308.387 30.4285C308.387 27.2641 306.995 23.9585 304.573 21.3585C301.712 18.2948 297.269 16.6017 292.063 16.6017H265.709C265.709 16.6017 266.758 16.9847 266.758 22.4267V58.324C266.758 61.8714 265.557 62.6978 265.557 62.6978H273.795V45.0011H286.819L301.178 62.6978H310.618C310.618 62.6978 308.272 60.9845 304.763 56.8123L304.783 56.8526ZM273.814 21.1166H290.214C296.64 21.1166 301.464 24.2004 301.464 30.6905C301.464 36.3744 296.239 40.6474 289.317 40.6474H273.814V21.1166ZM193.398 56.8526C192.159 55.3812 185.732 47.2988 183.349 44.1747C190.366 42.7033 197.002 38.0675 197.002 30.4285C197.002 27.2641 195.61 23.9585 193.188 21.3585C190.328 18.2948 185.885 16.6017 180.679 16.6017H154.325C154.325 16.6017 155.374 16.9847 155.374 22.4267V58.324C155.374 61.8714 154.172 62.6978 154.172 62.6978H162.41V45.0011H175.435L189.794 62.6978H199.233C199.233 62.6978 196.888 60.9845 193.379 56.8123L193.398 56.8526ZM162.41 21.1166H178.81C185.236 21.1166 190.061 24.2004 190.061 30.6905C190.061 36.3744 184.836 40.6474 177.914 40.6474H162.41V21.1166ZM127.437 16.6219H103.486C103.486 16.6219 104.535 17.0048 104.535 22.4469V58.3441C104.535 61.8915 103.333 62.7179 103.333 62.7179H111.571V46.8957H126.636C135.275 46.8957 144.695 42.139 144.695 31.396C144.695 22.4065 137.487 16.6017 127.418 16.6017L127.437 16.6219ZM126.827 42.3607H111.59V21.1166H127.189C134.035 21.1166 137.487 24.6438 137.487 31.7386C137.487 38.8334 133.596 42.3607 126.827 42.3607Z" fill="#FF6900"/>
<g clip-path="url(#clip0_393_2)">
<path d="M73.9608 19.4853C64.9976 19.9934 56.044 20.9712 47.2336 22.7064L47.0807 22.6009C55.8242 20.7411 64.7109 19.6195 73.6359 18.9676C73.741 19.1402 73.8462 19.3127 73.9608 19.4949M44.5867 20.7603C53.7506 18.8238 63.0769 17.7405 72.4224 17.1653C72.2981 16.9928 72.1835 16.8298 72.0592 16.6668C62.7807 17.3858 53.5404 18.6225 44.472 20.6836L44.5867 20.7603ZM70.6928 14.9412C70.559 14.7783 70.4252 14.6249 70.2914 14.4715C60.774 15.2863 51.3139 16.6476 42.0449 18.9197L42.1118 18.9676C51.4955 16.8202 61.0798 15.6027 70.6928 14.9508M74.6011 42.7136L75.2508 43.1929C76.8084 43.097 78.366 43.0203 79.9331 42.9532C79.9427 42.7519 79.9618 42.5506 79.9713 42.3493C78.1844 42.4547 76.388 42.5698 74.6011 42.7136ZM78.2418 45.3786C78.7386 45.3499 79.2355 45.3403 79.7324 45.3115C79.7516 45.1102 79.7802 44.9089 79.7993 44.7076C79.0444 44.7555 78.28 44.7938 77.5251 44.8418L78.2513 45.369L78.2418 45.3786ZM58.2704 6.20786L57.7162 6.61049C58.6909 6.48587 59.6751 6.39959 60.6593 6.29414C60.4873 6.18868 60.3153 6.08323 60.1433 5.98736C59.5127 6.06406 58.882 6.13116 58.2609 6.21744M45.0741 15.8328C52.8428 14.2414 60.7358 13.254 68.6574 12.6596C68.5141 12.5158 68.3708 12.372 68.2179 12.2186C60.5256 12.928 52.8619 14.0113 45.3129 15.6602L45.0741 15.8328ZM49.785 12.4008L49.4314 12.6596C55.0406 11.6722 60.7071 10.9724 66.3832 10.4931C66.2303 10.3588 66.0774 10.2246 65.9245 10.0904C60.516 10.6464 55.1266 11.3942 49.785 12.4008ZM53.7697 9.49605C57.0664 9.01672 60.3631 8.62367 63.6789 8.3169C63.5165 8.20186 63.354 8.07724 63.1916 7.9622C60.1911 8.29773 57.2097 8.69078 54.2284 9.17011L53.7697 9.50564V9.49605ZM68.7912 38.4667L69.3359 38.8597C72.8619 38.5626 76.3975 38.3517 79.9236 38.2079C79.914 38.0065 79.8949 37.8052 79.8853 37.6039C76.1777 37.8148 72.4797 38.0928 68.7912 38.4763M52.279 26.3972L52.5084 26.5697C60.4109 25.2564 68.409 24.4991 76.4166 24.106C76.3306 23.9143 76.2446 23.7321 76.1586 23.55C68.151 24.0772 60.1624 24.9592 52.279 26.4068M55.1648 28.4967C62.5227 27.3942 69.957 26.7519 77.3818 26.4068C77.3053 26.215 77.2384 26.0233 77.162 25.8316C69.699 26.2917 62.2456 27.0683 54.8782 28.2953L55.1648 28.5062V28.4967ZM57.6398 30.3085L57.9646 30.5482C64.6727 29.6279 71.4381 29.0718 78.194 28.7747C78.1367 28.5733 78.0698 28.3816 78.0029 28.1899C71.1897 28.6021 64.3765 29.2732 57.6302 30.3085M75.2699 21.7573C75.1744 21.5751 75.0693 21.393 74.9737 21.2109C66.4596 21.7956 57.9646 22.7831 49.5939 24.4319L49.785 24.5757C58.194 23.0611 66.7272 22.2079 75.2699 21.7669M63.1343 34.3349L63.5643 34.6512C68.8103 34.076 74.0755 33.7022 79.3407 33.4817C79.3024 33.2804 79.2642 33.079 79.226 32.8777C73.8462 33.1941 68.4759 33.6542 63.1247 34.3349M66.3832 36.7028C70.817 36.281 75.2604 35.9934 79.7038 35.8112C79.6751 35.6099 79.656 35.4086 79.6273 35.2073C75.0406 35.4661 70.4634 35.8304 65.8958 36.3481L66.3832 36.7028ZM72.2408 40.988C74.8304 40.8058 77.42 40.662 80.0096 40.5566C80.0096 40.3553 80.0096 40.1539 80.0096 39.9526C77.2193 40.106 74.4291 40.2977 71.6484 40.547L72.2504 40.988H72.2408ZM60.6976 32.5422C66.7176 31.804 72.7855 31.3535 78.8438 31.0946C78.796 30.8933 78.7482 30.692 78.6909 30.5002C72.5466 30.855 66.4118 31.4206 60.3153 32.2738L60.6976 32.5518V32.5422ZM52.8906 60.7459L52.7281 61.2636C54.8973 66.0952 56.8944 71.0131 58.7387 75.979C58.9202 75.8831 59.0922 75.7872 59.2738 75.6914C57.3149 70.6488 55.2031 65.6542 52.9001 60.7555M51.8299 64.0245L51.6483 64.5997C53.4257 68.7028 55.0884 72.8538 56.6364 77.0431C56.818 76.9568 56.9995 76.8705 57.1906 76.7747C55.528 72.4799 53.741 68.2234 51.8395 64.0245M53.9704 57.4194L53.827 57.8699C56.3975 63.4014 58.71 69.0479 60.8313 74.7615C61.0033 74.656 61.1753 74.541 61.3473 74.4259C59.1018 68.6644 56.6651 62.9796 53.9704 57.4194ZM56.0535 50.9868L55.9484 51.3223C59.2833 58.0137 62.1978 64.9257 64.8161 71.9239C64.9785 71.7896 65.1314 71.665 65.2938 71.5308C62.5418 64.5422 59.5031 57.6494 56.0535 50.9868ZM55.0024 54.2558L54.8782 54.6488C57.8309 60.7747 60.4491 67.0635 62.838 73.4385C63.0005 73.3235 63.1725 73.2085 63.3349 73.0838C60.8313 66.6896 58.0889 60.3912 55.0024 54.2558ZM50.731 67.4278L50.5208 68.0701C51.8968 71.3487 53.1964 74.656 54.429 77.9826C54.6202 77.9059 54.8017 77.8292 54.9928 77.7525C53.6455 74.2822 52.2312 70.831 50.731 67.4182M48.5045 74.3013L48.2561 75.0778C48.8294 76.535 49.3837 78.0017 49.9283 79.4685C50.1194 79.4206 50.3106 79.363 50.5112 79.3055C49.8614 77.6279 49.1925 75.9598 48.5045 74.3013ZM47.377 77.7717L47.0999 78.6249C47.2719 79.085 47.4534 79.5452 47.6254 79.9958C47.8261 79.9574 48.0172 79.9191 48.2179 79.8807C47.9408 79.1713 47.6541 78.4715 47.377 77.7717ZM49.6321 70.8118L49.4028 71.5212C50.3774 73.9275 51.333 76.3529 52.2312 78.7878C52.4224 78.7207 52.6135 78.6632 52.8046 78.5961C51.7917 75.9886 50.7215 73.3906 49.6321 70.8118ZM69.3741 40.9017L69.0397 40.662C71.7821 45.8196 74.257 51.1306 76.5122 56.5182C76.5982 56.3265 76.6746 56.1348 76.7511 55.943C74.5055 50.8238 72.0497 45.8004 69.3741 40.9017ZM64.8447 37.5943L64.6249 37.4313C68.6288 44.4871 72.0879 51.8496 75.1553 59.3654C75.2508 59.1833 75.3464 58.9916 75.4419 58.8094C72.3268 51.5332 68.8485 44.4104 64.8447 37.5943ZM57.0473 47.9382L56.9613 48.2162C60.6593 55.3678 63.8605 62.7783 66.7081 70.3037C66.861 70.1599 67.0139 70.0257 67.1572 69.8819C64.1758 62.3852 60.86 55.0323 57.0473 47.9382ZM73.8653 44.1899L73.397 43.8448C74.9355 46.9508 76.3784 50.0952 77.7449 53.278C77.8118 53.0862 77.8691 52.8945 77.936 52.7028C76.6364 49.8364 75.2986 46.9892 73.8653 44.1899ZM77.9073 47.1425L77.3626 46.7399C77.8309 47.7369 78.2991 48.7339 78.7482 49.7405C78.796 49.5488 78.8438 49.3475 78.882 49.1557C78.5667 48.4847 78.2322 47.8136 77.9073 47.1425ZM60.9651 35.84L60.9365 35.9167C65.8863 44.2282 70.0334 53.0095 73.6359 62.0017C73.741 61.8292 73.8462 61.647 73.9608 61.4745C70.2437 52.6261 66.001 43.9981 60.9651 35.84ZM58.0793 44.7363L58.0029 44.9664C62.0545 52.5494 65.4945 60.4487 68.5619 68.4823C68.7052 68.3385 68.8485 68.1851 68.9919 68.0413C65.8003 60.0653 62.236 52.2426 58.0698 44.7459M60.0382 38.6968L60 38.831C64.6823 46.9892 68.6192 55.5692 72.0592 64.3409C72.1835 64.1683 72.3077 63.9958 72.4224 63.8232C68.8581 55.1761 64.8065 46.7303 60.0382 38.6968ZM59.0349 41.8028L58.9775 41.9754C63.354 49.8651 67.0712 58.1096 70.3297 66.5266C70.4634 66.3636 70.5972 66.2103 70.731 66.0473C67.3483 57.7165 63.5165 49.5775 59.0349 41.8028ZM21.5002 59.1162H20.8982C17.5633 62.0784 14.1424 64.9448 10.645 67.7153C10.7788 67.8687 10.9221 68.0125 11.0655 68.1563C14.6297 65.242 18.108 62.2222 21.5002 59.1066M24.9403 59.1162H24.4052C20.4969 62.6824 16.4453 66.1048 12.3077 69.393C12.451 69.5368 12.6039 69.671 12.7473 69.8148C16.9231 66.3828 21.0033 62.8262 24.9403 59.1162ZM35.1648 59.1162H34.8208C29.5079 64.36 23.8605 69.278 18.0315 73.9466C18.2035 74.0617 18.3755 74.1671 18.5475 74.2822C24.3287 69.4985 29.9188 64.4751 35.1648 59.1162ZM31.7439 59.1162H31.333C26.4405 63.8232 21.29 68.2714 15.9866 72.5086C16.1491 72.6333 16.3115 72.7579 16.474 72.8729C21.7582 68.511 26.8896 63.9382 31.7439 59.1066M28.4281 59.1162H27.9599C23.5069 63.2768 18.8724 67.236 14.1042 71.0227C14.257 71.1569 14.4195 71.2816 14.5819 71.4158C19.3502 67.4949 23.9847 63.411 28.4281 59.1258M7.09986 59.1162H6.21118C5.82895 59.423 5.45628 59.7393 5.0645 60.0365C5.16006 60.2091 5.25561 60.3912 5.36073 60.5638C5.94362 60.0844 6.51696 59.5955 7.09986 59.1066M17.936 59.1162H17.2575C14.5724 61.4457 11.8395 63.7082 9.06832 65.9131C9.2021 66.0665 9.32633 66.2198 9.4601 66.3732C12.3364 64.0149 15.1648 61.5991 17.936 59.1162ZM10.731 59.1162H9.91878C8.71476 60.1132 7.49164 61.1006 6.26851 62.0784C6.37363 62.251 6.48829 62.414 6.60296 62.5865C7.98853 61.4457 9.36455 60.2953 10.731 59.1258M14.3908 59.1162H13.6455C11.6675 60.7938 9.66077 62.4427 7.63497 64.0629C7.74964 64.2258 7.87387 64.3888 7.99809 64.5518C10.1577 62.7783 12.2886 60.9664 14.3908 59.1162ZM46.7941 74.3301L46.9661 73.7932C44.6058 76.094 42.1787 78.3277 39.7038 80.5134C39.9044 80.5134 40.1051 80.5134 40.3058 80.5134C42.5131 78.5002 44.6727 76.4391 46.7845 74.3301M50.2054 63.7849L50.301 63.5068C44.9594 69.3547 39.1782 74.7998 33.139 79.9286C33.3397 79.967 33.5499 79.9958 33.7602 80.0245C39.5604 74.934 45.0932 69.5464 50.215 63.7849M48.495 69.0766L48.6288 68.6644C44.6918 72.7387 40.5447 76.6213 36.2637 80.3409C36.4644 80.36 36.6746 80.3792 36.8849 80.3888C40.9173 76.7747 44.7969 73.0071 48.5045 69.0671M38.366 59.1162H38.0793C32.4415 64.849 26.4118 70.1983 20.1529 75.2408C20.3344 75.3463 20.516 75.4421 20.6976 75.538C26.8801 70.3804 32.8333 64.9352 38.3755 59.1066M45.2556 79.085L45.4658 78.4236C44.7683 79.0754 44.0707 79.7273 43.3636 80.3696C43.5643 80.3505 43.7649 80.3313 43.9656 80.3121C44.3956 79.9095 44.8161 79.4877 45.2461 79.085M44.7969 59.1162H44.6154C38.4902 65.7309 31.8204 71.8184 24.8543 77.532C25.0454 77.6087 25.2365 77.6854 25.4276 77.7621C32.279 71.9622 38.8151 65.7884 44.7969 59.1066M41.72 59.1162H41.4811C35.5471 65.3187 29.1161 71.0515 22.4558 76.4583C22.6374 76.5446 22.8285 76.6404 23.01 76.7267C29.5843 71.2144 35.9006 65.3954 41.72 59.1066M48.0554 59.1162H47.9216C41.634 66.1048 34.7157 72.5086 27.4725 78.5003C27.6732 78.5674 27.8739 78.6345 28.065 78.692C35.1648 72.6237 41.9207 66.1432 48.0554 59.1162ZM51.0463 59.1162H50.9603C44.6154 66.4116 37.5729 73.0838 30.1577 79.2959C30.3583 79.3439 30.559 79.3918 30.7597 79.4397C38.0029 73.1605 44.8638 66.4403 51.0463 59.1162ZM0.086001 43.1066C0.0955566 43.3175 0.124224 43.5188 0.133779 43.7297C8.32298 48.6956 16.818 53.1725 25.6665 56.8058L25.6378 56.7291C16.7606 52.9233 8.25609 48.2642 0.0764453 43.1162M0 40.2881C0 40.4991 0 40.71 0 40.9209C7.95031 45.8196 16.1777 50.2678 24.7396 53.949L24.7014 53.8148C16.1395 49.9706 7.92164 45.3499 0 40.2881ZM0.831343 32.2929C0.79312 32.4943 0.754897 32.6956 0.716675 32.8969C7.52031 37.2013 14.5151 41.1989 21.7582 44.6884L21.6722 44.4104C14.4959 40.8058 7.55853 36.6932 0.840898 32.2833M0.391782 34.8717C0.363115 35.073 0.324892 35.284 0.305781 35.4853C7.55853 40.0485 15.0311 44.2857 22.7903 47.8903L22.7138 47.6602C14.9928 43.9119 7.57764 39.55 0.391782 34.8621M1.87291 52.5877C1.93024 52.7795 1.99713 52.9712 2.06402 53.1629C4.69183 54.6584 7.33875 56.1156 10.0334 57.4865H10.5972C7.64453 55.9334 4.74916 54.2845 1.88247 52.5877M3.14381 56.0389C3.22026 56.221 3.2967 56.4128 3.3827 56.5949C3.93693 56.9017 4.49116 57.1893 5.04539 57.4961H5.7334C4.86383 57.0167 4.00382 56.5374 3.14381 56.0485M0.401338 46.136C0.430005 46.3469 0.468227 46.5482 0.496894 46.7591C7.15719 50.7375 14.0086 54.3708 21.0893 57.4961H21.376C14.1424 54.1887 7.15719 50.3445 0.391782 46.136M0.965122 49.242C1.0129 49.4433 1.06068 49.6446 1.10846 49.846C5.80984 52.5973 10.6259 55.1569 15.5375 57.4865H15.958C10.8361 54.9748 5.83851 52.2043 0.955566 49.242M0.114668 37.4985C0.0955566 37.6998 0.086001 37.9107 0.0764453 38.1216C7.69231 42.8573 15.5662 47.1905 23.7458 50.843L23.6885 50.6704C15.528 46.8741 7.68275 42.3876 0.114668 37.508M9.0301 14.9892C8.90588 15.1425 8.78165 15.3055 8.65743 15.4589C10.1672 16.4271 11.6866 17.3858 13.2155 18.3253L12.967 17.5488C11.6484 16.7052 10.3392 15.852 9.03966 14.9796M7.56808 16.9065C7.45342 17.0695 7.32919 17.2324 7.21452 17.405C9.56522 18.9197 11.9446 20.3864 14.343 21.8244L14.1137 21.115C11.9159 19.7441 9.72766 18.3445 7.56808 16.9065ZM6.25896 18.843C6.15385 19.0155 6.04873 19.1881 5.94362 19.3606C9.06832 21.3738 12.2312 23.3295 15.4419 25.2085L15.2317 24.5662C12.193 22.7255 9.21166 20.8178 6.25896 18.8526M10.5781 13.2061C10.4443 13.3499 10.301 13.5032 10.1672 13.647C10.8075 14.0593 11.4477 14.4523 12.0879 14.8549L11.8108 14.0017C11.3999 13.7333 10.989 13.4649 10.5781 13.1965M3.95604 23.0035C3.87004 23.1857 3.78404 23.3678 3.69804 23.55C8.24654 26.4739 12.8715 29.2732 17.6015 31.8807L17.4391 31.363C12.8524 28.7363 8.3612 25.9274 3.95604 23.0035ZM2.13091 27.4901C2.06402 27.6818 1.99713 27.8735 1.93024 28.0748C7.70186 31.7657 13.6168 35.2456 19.6942 38.39L19.57 37.997C13.5882 34.7759 7.78786 31.2384 2.12136 27.4901M2.96226 25.2276C2.88581 25.4194 2.81892 25.6111 2.74247 25.8028C7.9312 29.139 13.2441 32.3025 18.6813 35.2168L18.538 34.7663C13.225 31.804 8.03631 28.6021 2.97181 25.2276M1.40468 29.8771C1.34735 30.0784 1.29957 30.2798 1.25179 30.4811C7.56808 34.517 14.0659 38.2941 20.7645 41.6494L20.6593 41.3139C14.0373 37.8627 7.63497 33.9898 1.41424 29.8771M5.02628 20.9137C4.93072 21.0958 4.83516 21.2684 4.73005 21.4505C8.6001 23.943 12.537 26.3397 16.5313 28.6117L16.3497 28.0365C12.5084 25.7645 8.73388 23.387 5.02628 20.9137ZM20.0669 32.0437L20.1338 31.9958C20.9938 22.3421 22.7903 12.7938 25.1505 3.3894C24.9594 3.46609 24.7683 3.55237 24.5772 3.62907C22.3985 12.9856 20.774 22.4667 20.0669 32.0437ZM33.0435 1.14614C32.8428 1.18449 32.6326 1.21325 32.4319 1.25159C30.3488 9.58233 28.6574 18.0185 27.635 26.541L27.8261 26.3972C28.9919 17.8843 30.817 9.44812 33.0435 1.14614ZM27.807 2.44033C27.6063 2.50744 27.4152 2.57454 27.2145 2.64165C25.0263 11.7393 23.3445 20.9616 22.5036 30.2798L22.6087 30.2031C23.6025 20.837 25.4467 11.5763 27.807 2.44992M30.4826 1.68299C30.2819 1.73092 30.0812 1.77886 29.8806 1.83638C27.7401 10.5697 26.0487 19.4277 25.1123 28.3624L25.2652 28.257C26.345 19.2935 28.1892 10.426 30.4826 1.68299ZM19.6082 6.13116C19.4267 6.23662 19.2547 6.35165 19.0827 6.45711C17.936 11.7968 16.9804 17.1749 16.2924 22.5817L16.4262 22.994C17.2289 17.3283 18.3086 11.7106 19.6178 6.13116M13.8366 10.3205C13.6837 10.4547 13.5404 10.5793 13.3875 10.7135C13.2728 11.3367 13.1581 11.9502 13.0435 12.5733L13.2537 13.2252C13.4448 12.257 13.6359 11.2887 13.8366 10.3205ZM22.3698 4.63566C22.1882 4.73152 21.9971 4.82739 21.8156 4.92325C20.1051 12.4871 18.7673 20.1467 18.0029 27.8544L18.0984 28.1419C18.9967 20.233 20.4873 12.3816 22.3698 4.64524M16.7129 8.03889C16.5504 8.15393 16.3784 8.27856 16.216 8.40318C15.6044 11.3654 15.0597 14.3469 14.5915 17.3379L14.7635 17.8843C15.3273 14.5865 15.9771 11.3079 16.7033 8.04848M35.6235 0.762679C35.4228 0.781852 35.2126 0.810612 35.0119 0.839371C33.0339 8.66202 31.3999 16.5805 30.3297 24.5662L30.559 24.3936C31.763 16.4271 33.5213 8.53739 35.6235 0.762679ZM52.3077 2.43074C52.1166 2.37322 51.9255 2.30612 51.7248 2.2486C51.0081 4.9616 50.3392 7.69378 49.7181 10.4355L50.3201 9.99455C50.9412 7.4637 51.6101 4.94243 52.3077 2.43074ZM50.0621 1.77886C49.871 1.73092 49.6703 1.68299 49.4792 1.63506C48.5332 5.23961 47.6636 8.86334 46.8801 12.5062L47.4248 12.1132C48.237 8.65243 49.1161 5.20126 50.0717 1.77886M47.7305 1.25159C47.5299 1.21325 47.3292 1.1749 47.1285 1.13656C45.9532 5.6039 44.8925 10.1 43.9656 14.6249L44.4529 14.2702C45.4181 9.89869 46.517 5.55597 47.721 1.25159M54.5724 3.23602C54.3813 3.15932 54.1997 3.09222 54.0086 3.02511C53.5499 4.76987 53.1199 6.51463 52.6995 8.25938L53.3588 7.78005C53.7506 6.25579 54.1615 4.74111 54.5724 3.23602ZM56.7415 4.16591C56.56 4.07964 56.3784 3.99336 56.1968 3.91666C56.0057 4.65483 55.8146 5.393 55.6235 6.13116L56.3497 5.6039C56.4835 5.12457 56.6077 4.64524 56.7415 4.16591ZM40.5924 0.523014C40.3918 0.523014 40.1816 0.513428 39.9809 0.513428C38.2609 7.16651 36.7893 13.8867 35.6904 20.6644L36.0153 20.4248C37.2193 13.7237 38.7864 7.08982 40.5924 0.523014ZM38.0984 0.570947C37.8882 0.580534 37.6875 0.59012 37.4773 0.609294C35.6044 7.88551 34.0277 15.248 32.9193 22.6776L33.2059 22.4763C34.4386 15.0946 36.1204 7.78964 38.0984 0.570947ZM42.9909 0.61888C42.7903 0.599707 42.58 0.599707 42.3794 0.580534C40.8122 6.56256 39.4458 12.6117 38.3755 18.6992L38.7578 18.4212C39.9236 12.4295 41.3665 6.48587 43.0005 0.609294M45.4085 0.877718C45.2078 0.848958 45.0072 0.820198 44.8065 0.801025C43.44 6.04488 42.2169 11.3271 41.2136 16.6476L41.6436 16.3313C42.7234 11.1354 43.9943 5.98736 45.4181 0.877718" fill="#FF6900"/>
</g>
<defs>
<clipPath id="clip0_393_2">
<rect width="80" height="80" fill="white" transform="translate(0 0.513428)"/>
</clipPath>
</defs>
</svg>
