<svg width="575" height="103" viewBox="0 0 575 103" fill="none" xmlns="http://www.w3.org/2000/svg">
<path d="M276.361 0.28125C250.936 0.28125 224.692 19.3371 224.692 51.2812V51.5365C224.692 80.4606 246.795 102.281 276.115 102.281C301.539 102.281 327.783 83.2254 327.783 51.026C327.783 22.1019 305.68 0.28125 276.361 0.28125ZM311.462 51.2812V51.5365C311.462 76.0369 297.684 91.8601 276.361 91.8601C255.037 91.8601 241.423 75.9093 241.423 50.9835C241.423 31.5023 250.526 10.6174 276.074 10.6174C297.561 10.6174 311.462 26.5682 311.462 51.2387V51.2812ZM574.439 2.6207L519.08 63.0636V99.9418H501.242C501.242 99.9418 502.964 99.0911 502.964 87.649V63.1061C502.964 63.1061 471.594 22.4422 466.673 16.4873C457.693 5.55564 453.059 2.6207 453.059 2.6207H474.054L513.995 52.9827L561.071 2.6207H574.398H574.439ZM434.196 87.5214C431.53 84.4164 417.711 67.3596 412.585 60.7667C427.676 57.6616 441.946 47.8784 441.946 31.7575C441.946 25.0794 438.953 18.1036 433.745 12.6165C427.594 6.15114 418.039 2.57816 406.844 2.57816H350.173C350.173 2.57816 352.428 3.38634 352.428 14.8709V90.6265C352.428 98.1128 349.845 99.8567 349.845 99.8567H367.56V62.5106H395.567L426.445 99.8567H446.744C446.744 99.8567 441.7 96.2412 434.155 87.4364L434.196 87.5214ZM367.601 12.1061H402.867C416.686 12.1061 427.061 18.614 427.061 32.3104C427.061 44.3054 415.825 53.323 400.939 53.323H367.601V12.1061ZM194.675 87.5214C192.01 84.4164 178.19 67.3596 173.064 60.7667C188.155 57.6616 202.425 47.8784 202.425 31.7575C202.425 25.0794 199.432 18.1036 194.224 12.6165C188.073 6.15114 178.518 2.57816 167.324 2.57816H110.652C110.652 2.57816 112.908 3.38634 112.908 14.8709V90.6265C112.908 98.1128 110.324 99.8567 110.324 99.8567H128.039V62.5106H156.047L186.925 99.8567H207.223C207.223 99.8567 202.179 96.2412 194.634 87.4364L194.675 87.5214ZM128.039 12.1061H163.305C177.124 12.1061 187.499 18.614 187.499 32.3104C187.499 44.3054 176.263 53.323 161.378 53.323H128.039V12.1061ZM52.8326 2.6207H1.32805C1.32805 2.6207 3.58343 3.42887 3.58343 14.9134V90.6691C3.58343 98.1553 1 99.8993 1 99.8993H18.7149V66.5089H51.1103C69.6864 66.5089 89.9437 56.4706 89.9437 33.7992C89.9437 14.8284 74.4432 2.57816 52.7916 2.57816L52.8326 2.6207ZM51.5204 56.9385H18.7559V12.1061H52.2995C67.0209 12.1061 74.4432 19.5498 74.4432 34.5223C74.4432 49.4948 66.0778 56.9385 51.5204 56.9385Z" fill="white" stroke="white" stroke-width="0.163831" stroke-linejoin="round"/>
</svg>
