<svg width="382" height="29" viewBox="0 0 382 29" fill="none" xmlns="http://www.w3.org/2000/svg"><path d="M381.918 3.30099C381.918 4.57384 381.811 6.12953 381.493 7.57915C380.963 10.0895 380.821 14.0494 380.821 15.2869V18.1155C380.786 18.9287 380.751 19.1762 380.114 19.1762C379.478 19.1762 379.407 18.9287 379.407 18.1155V15.2869C379.407 14.0494 379.266 10.0895 378.735 7.61451C378.417 6.12953 378.311 4.57384 378.311 3.30099C378.311 2.41707 378.735 1.00281 380.114 1.00281C381.493 1.00281 381.918 2.41707 381.918 3.30099ZM381.918 24.2322C381.918 25.2222 381.104 26.0707 380.114 26.0707C379.124 26.0707 378.311 25.2222 378.311 24.2322C378.311 23.2068 379.124 22.3583 380.114 22.3583C381.104 22.3583 381.918 23.2068 381.918 24.2322Z" fill="white"/><path d="M366.447 1.99275C363.371 2.38167 362.947 2.48775 362.947 11.7512C362.947 15.8172 363.088 21.7218 363.407 25.0453C363.407 25.1514 363.407 25.2575 363.407 25.3635C363.407 26.2121 363.053 26.4242 362.629 26.4242C362.169 26.4242 361.851 26.1414 361.356 25.3282C360.189 23.4896 357.467 19.954 354.214 16.1708C350.855 12.3169 347.319 8.18018 344.88 5.06879C344.844 5.03343 344.844 5.03343 344.809 5.03343C344.738 5.03343 344.632 5.10414 344.632 5.21021C344.632 6.23556 344.597 7.43768 344.597 8.71053C344.597 12.5291 344.703 16.9486 344.844 19.2115C345.198 24.126 345.87 24.2675 348.698 24.7271C348.91 24.9039 349.016 25.1514 349.016 25.3635C349.016 25.5757 348.91 25.7525 348.628 25.7525C348.628 25.7525 346.117 25.505 343.572 25.505C342.263 25.505 340.99 25.5757 339.965 25.7525C339.93 25.7525 339.93 25.7525 339.894 25.7525C339.718 25.7525 339.576 25.5757 339.576 25.3635C339.576 25.1514 339.682 24.9393 339.894 24.7271C343.041 24.3382 343.218 23.5603 343.218 15.6404C343.218 12.4583 343.183 8.10946 343.183 4.46772C343.183 3.37166 342.652 2.38167 339.718 1.99275C339.576 1.88668 339.399 1.60383 339.399 1.35633C339.399 1.14419 339.541 0.967407 339.93 0.967407C339.93 0.967407 341.521 1.10883 343.147 1.10883C343.89 1.10883 344.632 1.07348 345.269 1.00276C345.269 1.00276 345.269 1.00276 345.304 1.00276C345.375 1.00276 345.445 1.00276 345.481 1.14419C345.764 2.20489 346.153 2.48775 347.461 4.0788C349.511 6.62448 351.88 9.41766 354.426 12.1755C356.795 14.7919 359.27 18.0093 361.356 20.4136C361.427 20.4843 361.462 20.5197 361.533 20.5197C361.603 20.5197 361.639 20.449 361.639 20.2368C361.639 20.2015 361.639 20.1661 361.639 20.1307C361.533 18.8225 361.497 16.8072 361.497 14.8272C361.497 12.6705 361.533 10.5137 361.533 9.20552C361.533 8.92267 361.533 8.67517 361.533 8.49838C361.497 4.53843 361.886 2.5231 357.537 1.99275C357.325 1.81597 357.219 1.60383 357.219 1.39169C357.219 1.17955 357.361 0.967407 357.643 0.967407C357.643 0.967407 360.225 1.14419 362.806 1.14419C364.114 1.14419 365.387 1.10883 366.341 0.967407C366.377 0.967407 366.377 0.967407 366.412 0.967407C366.624 0.967407 366.73 1.14419 366.73 1.39169C366.73 1.60383 366.659 1.81597 366.447 1.99275Z" fill="white"/><path d="M336.838 20.2369C336.414 21.7219 335.07 24.3736 334.717 25.399C334.646 25.5758 334.434 25.7172 333.868 25.7172C333.868 25.7172 328.6 25.6111 323.756 25.6111C321.069 25.6111 318.488 25.6465 317.074 25.7525H317.038C316.755 25.7525 316.614 25.5758 316.614 25.3636C316.614 25.1868 316.72 24.9393 316.968 24.7626C319.336 24.5504 319.725 24.4443 320.008 23.2776C320.22 22.4644 320.256 17.7973 320.256 8.74596C320.256 2.87675 320.185 1.95747 316.826 1.95747C316.614 1.81605 316.508 1.56855 316.508 1.39177C316.508 1.14427 316.614 0.967487 316.826 0.967487C316.861 0.967487 316.861 0.967487 316.897 0.967487C317.816 1.07356 319.513 1.10891 321.458 1.10891C325.842 1.10891 331.535 0.932129 332.383 0.932129C332.454 0.932129 332.489 0.932129 332.489 0.932129C332.666 0.932129 333.126 0.932129 333.126 1.2857V1.32105C333.126 1.46248 333.09 1.60391 333.09 1.78069C333.09 2.80604 333.338 4.2203 333.338 5.38708C333.338 5.45779 333.338 5.5285 333.338 5.59922C333.338 5.88207 333.055 6.0235 332.807 6.0235C332.666 6.0235 332.525 5.98814 332.489 5.88207C331.075 2.3464 329.767 1.99283 326.019 1.99283C325.17 1.99283 324.428 2.02819 323.756 2.16961C322.766 2.27569 322.766 3.51317 322.766 8.03883C322.766 9.13489 322.801 10.3017 322.801 11.327C322.801 11.8574 323.261 11.9281 324.958 11.9281C325.489 11.9281 325.948 11.8927 326.443 11.822C327.575 11.7159 329.59 11.9988 330.156 8.81668C330.191 8.60454 330.474 8.46311 330.721 8.46311C330.969 8.46311 331.181 8.56918 331.181 8.85203C331.181 8.85203 331.181 8.88739 331.181 8.92275C331.04 9.80666 331.004 10.9381 331.004 12.0341C331.004 14.2263 331.181 16.3123 331.181 16.3123C331.181 16.3123 331.181 16.3123 331.181 16.3477C331.181 16.5598 330.969 16.6305 330.721 16.6305C330.438 16.6305 330.191 16.5244 330.156 16.3123C329.908 13.0241 327.433 12.9534 324.852 12.9534C322.872 12.9534 322.801 12.9534 322.801 13.5898C322.801 13.9434 322.801 14.5445 322.801 15.2516C322.801 23.3483 322.801 23.9847 326.408 24.6211C326.761 24.6918 327.15 24.7272 327.645 24.7272C331.04 24.7272 333.479 23.7018 335.989 19.9187C336.06 19.8126 336.166 19.7419 336.272 19.7419C336.555 19.7419 336.838 19.9894 336.838 20.2015V20.2369Z" fill="white"/><path d="M312.421 7.68518C312.421 13.1301 307.542 14.6858 304.147 14.6858C303.582 14.6858 303.37 14.403 303.37 14.1201C303.37 13.8726 303.546 13.6251 303.794 13.6251C303.9 13.6251 303.971 13.6251 304.077 13.6251C307.294 13.6251 309.592 11.8926 309.592 8.46303C309.592 7.86197 309.557 2.02811 303.971 2.02811C302.91 2.02811 301.496 2.24025 301.496 3.76059C301.46 4.43236 301.425 5.21021 301.425 6.4477C301.425 6.73055 301.425 7.04876 301.425 7.40233C301.425 10.0541 301.39 12.6351 301.39 15.004C301.39 16.1708 301.39 17.3022 301.425 18.3629C301.637 24.2321 301.814 24.4089 305.102 24.6918C305.314 24.8685 305.42 25.116 305.42 25.2928C305.42 25.5403 305.279 25.7171 305.031 25.7525C305.031 25.7525 302.344 25.505 299.586 25.505C298.208 25.505 296.829 25.5757 295.733 25.7525C295.697 25.7525 295.697 25.7525 295.662 25.7525C295.485 25.7525 295.344 25.5757 295.344 25.3282C295.344 25.116 295.414 24.8685 295.662 24.6918C298.632 24.3735 298.703 24.5503 298.844 18.3276C298.879 16.9486 298.879 14.2262 298.879 11.7512C298.879 9.94801 298.879 8.28624 298.844 7.40233C298.703 2.16953 298.738 2.5231 295.556 2.13418C295.344 1.99275 295.238 1.74525 295.238 1.53311C295.238 1.28562 295.379 1.07348 295.626 1.07348H295.662C296.793 1.14419 297.748 1.17955 298.596 1.17955C300.329 1.17955 301.779 1.07348 303.865 0.967407C304.041 0.967407 304.218 0.967407 304.395 0.967407C308.779 0.967407 312.421 3.44238 312.421 7.68518Z" fill="white"/><path d="M290.318 13.4484C290.318 20.3076 285.827 26.2121 277.695 26.2121C269.634 26.2121 265.038 20.2722 265.038 13.4484C265.038 6.23559 270.483 0.401733 277.801 0.401733C285.474 0.401733 290.318 6.23559 290.318 13.4484ZM287.1 13.8726C287.1 7.68522 284.166 1.53315 277.589 1.53315C270.978 1.53315 268.291 7.50843 268.291 12.7766C268.291 14.898 268.962 25.1161 277.943 25.1161C284.802 25.1161 287.1 19.3529 287.1 13.8726Z" fill="white"/><path d="M251.249 12.3523C252.097 12.8473 252.451 13.519 252.451 14.0847C252.451 14.6505 252.097 15.1101 251.461 15.1101C251.142 15.1101 250.754 14.9687 250.294 14.6505C248.208 13.1301 246.864 12.3523 244.036 11.6451C244.036 12.6705 244 13.7665 244 14.8272C244 19.1054 244.107 23.2421 244.107 23.4896C244.107 24.621 244.036 26.7778 243.081 26.7778C242.197 26.7778 241.773 24.8685 241.773 23.9493C241.773 23.4189 241.844 22.8179 241.985 22.1107C242.197 21.0147 242.197 21.5097 242.339 20.3075C242.515 18.9286 242.657 14.2615 242.657 10.1955C242.657 5.10414 242.622 1.63919 240.712 1.63919C240.323 1.63919 240.111 1.49776 240.111 1.25026C240.111 0.967408 240.465 0.472412 241.172 0.472412C241.808 0.472412 244.743 1.42704 244.743 3.5838C244.743 4.29094 244.425 5.10414 244.283 6.51841C244.142 7.64982 244.071 9.34695 244.036 11.2562H244.637C247.253 11.2562 249.41 11.2562 251.249 12.3523Z" fill="white"/><path d="M217.907 0.861328C219.215 0.861328 221.655 2.31095 221.655 3.40701C221.655 4.25557 220.488 4.99806 219.923 5.88198C219.109 7.19018 218.119 8.56909 216.953 9.91265C217.872 10.1955 218.544 11.2208 218.544 11.9633C218.544 12.1401 218.508 12.2815 218.438 12.3876C218.225 12.7765 218.19 15.5344 218.19 18.1861C218.19 20.8379 218.225 23.3836 218.225 23.4896C218.261 23.7725 218.261 24.02 218.261 24.2321C218.261 24.6918 218.084 26.8132 217.2 26.8132C216.634 26.8132 215.927 25.8232 215.927 23.9846C215.927 23.4896 215.998 22.9239 216.104 22.3229C216.352 20.9086 216.564 21.2621 216.599 19.7065C216.634 17.1961 216.634 15.4636 216.67 13.3776C216.67 12.4583 216.528 11.2916 216.175 10.7612C209.846 17.7972 203.376 20.4489 202.492 20.4489C202.421 20.4489 202.386 20.4136 202.386 20.3782C202.386 20.3075 202.668 20.06 203.022 19.8832C210.235 15.9586 218.579 6.02341 218.579 3.23023C218.579 2.55845 218.119 2.16953 217.059 1.85132C216.811 1.7806 216.74 1.67453 216.74 1.56846C216.74 1.46239 217.059 0.861328 217.907 0.861328Z" fill="white"/><path d="M194.399 7.08421C194.859 7.08421 198.501 7.64992 198.501 8.92276C198.501 9.41775 197.97 9.80668 197.228 9.80668C197.086 9.80668 196.945 9.77132 196.768 9.73597C194.965 9.34704 192.95 9.1349 190.793 9.1349C189.909 9.1349 188.99 9.17026 188.035 9.24097C188.035 9.52382 188 9.84203 188 10.1956C187.787 23.6312 176.297 27.1315 175.519 27.1315C175.448 27.1315 175.413 27.0961 175.413 27.0608C175.413 26.99 175.731 26.7072 176.65 26.1768C182.236 22.9594 186.02 17.5144 186.338 9.87739V9.41776C184.499 9.59454 182.661 9.80668 180.822 10.0542C180.822 10.9381 180.858 11.8927 181.105 13.9788C181.14 14.3323 181.176 14.5798 181.176 14.792C181.176 15.6405 180.787 16.9487 180.115 16.9487C179.691 16.9487 179.302 16.3477 179.302 15.0395C179.302 14.9334 179.302 14.7566 179.302 14.6152C179.408 13.2363 179.479 12.317 179.479 11.327C179.479 10.9735 179.479 10.6199 179.443 10.231L177.428 10.5492C176.12 10.7967 174.741 11.3977 173.397 11.3977C172.089 11.3977 168.978 10.4077 168.978 9.02883C168.978 8.99347 168.978 8.95812 168.978 8.95812C168.978 8.46312 169.084 8.3217 169.296 8.3217C169.543 8.3217 169.932 8.60455 170.286 8.71062C172.018 9.24097 173.15 9.52382 174.635 9.52382C175.094 9.52382 175.589 9.52382 176.12 9.45311C177.18 9.34704 178.276 9.20561 179.373 9.09954C179.16 6.23565 178.913 4.53853 176.898 4.36174C176.685 4.32639 176.509 4.18496 176.509 3.97282C176.509 3.76068 176.933 3.30104 177.817 3.30104C178.736 3.30104 181.246 4.43246 181.246 5.4578C181.246 5.7053 181.105 5.88208 181.034 6.02351C180.858 6.44779 180.787 7.61456 180.787 7.96813C180.787 8.3217 180.822 8.63991 180.822 8.92276C182.731 8.71062 184.605 8.49848 186.373 8.28634C186.373 7.47313 186.409 6.69529 186.479 5.66994C186.515 5.24566 186.515 4.8921 186.515 4.53853C186.515 2.16963 185.807 1.42714 184.676 1.28571C184.464 1.25035 184.216 1.07357 184.216 0.86143C184.216 0.649291 184.641 0.154297 185.348 0.154297C186.585 0.154297 189.202 1.88677 189.202 2.69998C189.202 3.05355 188.99 3.37176 188.848 3.68997C188.388 4.6446 188.247 5.17495 188.07 8.10956C189.343 7.96813 190.545 7.8267 191.606 7.68528C193.056 7.50849 193.445 7.08421 194.399 7.08421Z" fill="white"/><path d="M157.795 17.368C157.795 23.348 154.623 27.248 151.789 28.938C151.763 28.938 151.737 28.964 151.711 28.964C151.503 28.964 151.243 28.704 151.243 28.522C151.243 28.496 151.269 28.444 151.321 28.418C153.609 27.04 155.949 22.646 155.949 17.368C155.949 12.35 153.635 7.90398 151.321 6.55198C151.269 6.52598 151.269 6.47398 151.269 6.44798C151.269 6.26598 151.477 5.97998 151.685 5.97998C151.737 5.97998 151.763 5.97998 151.789 6.00598C154.623 7.72198 157.795 11.57 157.795 17.368Z" fill="white"/><path d="M147.533 25.168C146.545 25.402 145.349 25.818 144.855 26.156C144.829 26.182 144.803 26.208 144.751 26.208C144.517 26.208 144.075 25.194 143.971 24.466C143.945 24.336 143.893 24.284 143.841 24.284C143.789 24.284 143.737 24.31 143.659 24.388C142.749 25.402 141.865 26.182 140.513 26.182C138.355 26.182 137.159 24.882 137.029 22.984C136.977 22.386 136.951 21.71 136.951 21.034C136.951 20.15 136.977 19.292 137.003 18.694C137.003 18.46 137.029 18.252 137.029 18.044C137.029 17.238 136.847 16.718 135.781 16.536C135.703 16.51 135.651 16.38 135.651 16.25C135.651 16.12 135.677 16.016 135.781 15.99C136.613 15.834 137.783 15.47 138.381 15.158C138.433 15.132 138.485 15.106 138.563 15.106C138.667 15.106 138.797 15.184 138.797 15.34C138.797 15.392 138.797 15.47 138.797 15.548C138.797 16.172 138.719 17.238 138.693 18.772C138.693 19.058 138.667 19.734 138.667 20.436C138.667 22.62 138.667 24.934 141.085 24.934C142.697 24.934 143.789 23.634 143.815 22.646C143.841 22.256 143.867 21.112 143.867 19.942C143.867 16.952 143.659 16.744 142.359 16.536C142.281 16.536 142.255 16.406 142.255 16.302C142.255 16.146 142.307 16.016 142.385 15.99C143.217 15.886 144.673 15.418 145.271 15.132C145.271 15.132 145.271 15.132 145.297 15.132C145.375 15.132 145.609 15.262 145.609 15.418C145.557 16.146 145.479 19.708 145.479 21.164C145.479 23.79 145.713 24.596 146.987 24.596C147.169 24.596 147.351 24.57 147.533 24.544H147.559C147.689 24.544 147.767 24.674 147.767 24.804C147.767 24.96 147.689 25.116 147.533 25.168Z" fill="white"/><path d="M132.051 25.168C132.181 25.272 132.259 25.428 132.259 25.584C132.259 25.714 132.181 25.818 131.999 25.818C131.973 25.818 130.543 25.662 129.035 25.662C128.281 25.662 127.527 25.688 126.903 25.818C126.877 25.818 126.877 25.818 126.851 25.818C126.721 25.818 126.643 25.714 126.643 25.584C126.643 25.454 126.721 25.272 126.877 25.168C128.593 25.012 128.619 24.024 128.619 21.294C128.619 21.086 128.619 19.266 128.593 19.032C128.489 17.082 127.137 16.432 126.227 16.432C124.433 16.432 123.471 17.836 123.393 18.538C123.367 18.876 123.341 19.708 123.341 20.618C123.341 21.866 123.367 23.296 123.419 23.712C123.471 24.492 123.861 25.116 125.187 25.142C125.317 25.272 125.369 25.402 125.369 25.532C125.369 25.688 125.291 25.792 125.161 25.792C125.135 25.792 123.705 25.636 122.249 25.636C121.469 25.636 120.663 25.688 120.065 25.818H120.039C119.909 25.818 119.831 25.688 119.831 25.532C119.831 25.402 119.883 25.22 120.039 25.116C121.365 24.986 121.521 24.44 121.573 23.738C121.677 22.412 121.729 15.912 121.729 13.494C121.729 8.39799 121.703 8.31999 120.169 7.92999C120.091 7.90399 120.039 7.77399 120.039 7.66999C120.039 7.53999 120.091 7.43599 120.143 7.43599C121.365 7.20199 122.483 6.73399 123.237 6.34399C123.263 6.34399 123.263 6.34399 123.289 6.34399C123.393 6.34399 123.549 6.396 123.549 6.57799C123.445 8.96999 123.471 11.076 123.419 15.158L123.367 16.848C123.367 16.926 123.419 16.978 123.471 16.978C123.497 16.978 123.523 16.978 123.549 16.952C124.979 15.288 126.383 15.288 126.747 15.288C128.671 15.288 130.257 16.484 130.335 18.694C130.361 19.188 130.361 20.592 130.387 21.294C130.387 22.022 130.387 23.374 130.413 23.686C130.465 24.466 130.803 25.142 132.051 25.168Z" fill="white"/><path d="M116.485 7.12401C116.407 7.59202 116.407 8.11201 116.407 9.56801C116.433 9.90601 116.433 10.244 116.433 10.556C116.433 11.7 116.355 11.7 116.095 11.7C115.939 11.7 115.783 11.622 115.731 11.518C115.159 9.69801 115.185 8.94401 112.429 8.58001C111.909 8.50201 111.467 8.47601 111.103 8.47601C109.647 8.47601 109.465 8.55402 109.335 8.97001C109.205 9.67201 109.153 12.324 109.153 15.132C109.153 16.718 109.153 18.668 109.179 20.202C109.179 23.998 109.179 24.726 111.909 25.064C112.091 25.194 112.169 25.376 112.169 25.506C112.169 25.688 112.065 25.818 111.857 25.818C111.831 25.818 109.699 25.636 107.515 25.636C106.423 25.636 105.331 25.688 104.499 25.818C104.473 25.818 104.473 25.818 104.447 25.818C104.291 25.818 104.213 25.688 104.213 25.506C104.213 25.35 104.291 25.168 104.447 25.038C107.229 24.596 107.177 24.57 107.229 20.15C107.255 18.98 107.255 17.628 107.255 16.406C107.255 15.184 107.255 14.092 107.229 13.468C107.229 13.26 107.229 9.43801 107.073 9.02201C107.047 8.97001 107.151 8.65801 106.657 8.58001C106.475 8.55402 105.721 8.50201 104.915 8.50201C102.107 8.50201 101.483 8.78801 100.261 11.7C100.183 11.83 100.053 11.908 99.897 11.908C99.715 11.908 99.533 11.804 99.533 11.622C99.533 11.622 99.533 11.596 99.533 11.57C99.871 9.82801 100.391 8.16401 100.521 7.09801C100.547 6.96801 100.729 6.89001 100.911 6.89001C101.067 6.89001 101.223 6.94201 101.275 7.07201C101.509 7.74801 102.133 7.80001 108.893 7.80001C113.651 7.80001 115.445 7.67001 115.835 7.04601C115.887 6.96801 115.991 6.91601 116.095 6.91601C116.277 6.91601 116.485 7.04601 116.485 7.12401Z" fill="white"/><path d="M96.0775 28.418C96.1295 28.444 96.1555 28.496 96.1555 28.522C96.1555 28.704 95.8955 28.964 95.6615 28.964C95.6355 28.964 95.6095 28.938 95.5835 28.938C92.7755 27.248 89.6035 23.348 89.6035 17.368C89.6035 11.57 92.7755 7.72198 95.5835 6.00598C95.6095 5.97998 95.6615 5.97998 95.6875 5.97998C95.8955 5.97998 96.1295 6.26598 96.1295 6.44798C96.1295 6.47398 96.1295 6.52598 96.0775 6.55198C93.7635 7.90398 91.4495 12.35 91.4495 17.368C91.4495 22.646 93.7635 27.04 96.0775 28.418Z" fill="white"/><path d="M81.0351 24.7272C81.2826 24.904 81.424 25.1515 81.424 25.3283C81.424 25.5404 81.2826 25.7172 80.929 25.7172C80.929 25.7172 78.1005 25.5051 74.9537 25.5051C73.398 25.5051 71.7363 25.5404 70.3574 25.7172C70.322 25.7172 70.2866 25.7172 70.2866 25.7172C70.0391 25.7172 69.8624 25.5758 69.8624 25.3636C69.8624 25.1515 70.0038 24.9393 70.2866 24.7272C74.7062 24.1969 74.388 23.8079 74.5648 19.9187C74.6355 18.6459 74.7062 15.4991 74.7062 12.2816C74.7062 9.87739 74.6709 7.40242 74.5294 5.56387C74.5294 5.17494 74.2112 4.99816 74.1052 4.99816C72.903 5.03352 70.6756 5.63458 70.6756 5.63458H70.6402C70.322 5.63458 70.0745 5.42244 70.0745 5.13959C70.0745 4.99816 70.1806 4.78602 70.3927 4.60924C73.0798 3.83139 76.0851 1.92212 76.4741 1.39177C76.6509 1.17964 76.8984 1.03821 77.0751 1.03821C77.3226 1.03821 77.5348 1.25035 77.5348 1.74534C77.5348 1.81606 77.5348 1.88677 77.5348 1.95748C77.2166 4.7153 77.1459 10.6199 77.1459 15.3223C77.1459 17.1255 77.1458 18.7873 77.1812 19.8833C77.2873 23.8433 77.2166 24.3029 81.0351 24.7272Z" fill="white"/><path d="M63.5039 13.4838C63.5039 20.1662 60.9582 26.1415 56.3619 26.1415C51.2351 26.1415 49.043 20.343 49.043 13.6606C49.043 6.94278 51.6948 1.03821 56.1497 1.03821C61.0997 1.03821 63.5039 6.83671 63.5039 13.4838ZM60.5693 13.5898C60.5693 7.8267 59.8622 1.88677 56.1497 1.88677C53.003 1.88677 51.9423 7.89741 51.9423 13.6252C51.9423 19.1408 52.6494 25.2222 56.3972 25.2222C59.6147 25.2222 60.5693 19.1408 60.5693 13.5898Z" fill="white"/><path d="M43.3885 24.0907C43.3885 25.1868 42.5045 26.0707 41.4438 26.0707C40.3478 26.0707 39.4639 25.1868 39.4639 24.0907C39.4639 23.03 40.3478 22.1461 41.4085 22.1461C42.5045 22.1461 43.3885 23.03 43.3885 24.0907Z" fill="white"/><path d="M29.1809 12.4938C31.3376 13.802 33.7065 15.5698 33.7065 19.6005C33.7065 22.8887 31.1255 26.1061 26.3523 26.1061C22.8167 26.1061 19.4578 23.8433 19.4578 19.6005C19.4578 16.5598 21.6145 14.3323 23.842 13.0595C23.9481 13.0241 24.0188 12.9181 24.0188 12.812C24.0188 12.7766 23.9834 12.7413 23.9481 12.7059C21.7913 11.5745 20.3063 9.7006 20.3063 7.15492C20.3063 3.01818 23.9481 1.03821 26.7766 1.03821C29.9587 1.03821 32.7872 3.30104 32.7872 6.80135C32.7872 9.24096 31.373 10.9381 29.1455 12.1402C29.1455 12.1402 29.1101 12.2463 29.1101 12.317C29.1101 12.3877 29.1455 12.4584 29.1809 12.4938ZM30.3476 6.55386C30.3476 3.6546 29.1101 1.99284 26.4937 1.99284C24.5138 1.99284 22.4984 3.72532 22.4984 6.55386C22.4984 9.55917 26.5291 11.5745 27.3777 11.5745C27.7666 11.5745 30.3476 10.231 30.3476 6.55386ZM31.479 20.3783C31.479 15.888 25.8573 13.7666 25.327 13.7666C25.0795 13.7666 21.8267 15.782 21.8267 20.0248C21.8267 22.7472 23.4884 25.1515 26.5998 25.1515C29.3576 25.1515 31.479 22.9947 31.479 20.3783Z" fill="white"/><path d="M14.4783 13.4838C14.4783 20.1662 11.9326 26.1415 7.33623 26.1415C2.20951 26.1415 0.017395 20.343 0.017395 13.6606C0.017395 6.94278 2.66915 1.03821 7.12409 1.03821C12.074 1.03821 14.4783 6.83671 14.4783 13.4838ZM11.5437 13.5898C11.5437 7.8267 10.8365 1.88677 7.12409 1.88677C3.97735 1.88677 2.91665 7.89741 2.91665 13.6252C2.91665 19.1408 3.62378 25.2222 7.37159 25.2222C10.5891 25.2222 11.5437 19.1408 11.5437 13.5898Z" fill="white"/></svg>