<svg width="249" height="23" viewBox="0 0 249 23" fill="none" xmlns="http://www.w3.org/2000/svg">
<path d="M248.528 3.30535C248.528 4.31335 248.444 5.54535 248.192 6.69335C247.772 8.68135 247.66 11.8174 247.66 12.7974V15.0374C247.632 15.6814 247.604 15.8774 247.1 15.8774C246.596 15.8774 246.54 15.6814 246.54 15.0374V12.7974C246.54 11.8174 246.428 8.68135 246.008 6.72135C245.756 5.54535 245.672 4.31335 245.672 3.30535C245.672 2.60535 246.008 1.48535 247.1 1.48535C248.192 1.48535 248.528 2.60535 248.528 3.30535ZM248.528 19.8814C248.528 20.6654 247.884 21.3374 247.1 21.3374C246.316 21.3374 245.672 20.6654 245.672 19.8814C245.672 19.0694 246.316 18.3974 247.1 18.3974C247.884 18.3974 248.528 19.0694 248.528 19.8814Z" fill="white"/>
<path d="M236.276 2.26927C233.84 2.57727 233.504 2.66127 233.504 9.99727C233.504 13.2173 233.616 17.8933 233.868 20.5253C233.868 20.6093 233.868 20.6933 233.868 20.7773C233.868 21.4493 233.588 21.6173 233.252 21.6173C232.888 21.6173 232.636 21.3933 232.244 20.7493C231.32 19.2933 229.164 16.4933 226.588 13.4973C223.928 10.4453 221.128 7.16927 219.196 4.70527C219.168 4.67727 219.168 4.67727 219.14 4.67727C219.084 4.67727 219 4.73327 219 4.81727C219 5.62927 218.972 6.58127 218.972 7.58927C218.972 10.6133 219.056 14.1133 219.168 15.9053C219.448 19.7973 219.98 19.9093 222.22 20.2733C222.388 20.4133 222.472 20.6093 222.472 20.7773C222.472 20.9453 222.388 21.0853 222.164 21.0853C222.164 21.0853 220.176 20.8893 218.16 20.8893C217.124 20.8893 216.116 20.9453 215.304 21.0853C215.276 21.0853 215.276 21.0853 215.248 21.0853C215.108 21.0853 214.996 20.9453 214.996 20.7773C214.996 20.6093 215.08 20.4413 215.248 20.2733C217.74 19.9653 217.88 19.3493 217.88 13.0773C217.88 10.5573 217.852 7.11327 217.852 4.22927C217.852 3.36127 217.432 2.57727 215.108 2.26927C214.996 2.18527 214.856 1.96127 214.856 1.76527C214.856 1.59727 214.968 1.45728 215.276 1.45728C215.276 1.45728 216.536 1.56927 217.824 1.56927C218.412 1.56927 219 1.54127 219.504 1.48527C219.504 1.48527 219.504 1.48527 219.532 1.48527C219.588 1.48527 219.644 1.48527 219.672 1.59727C219.896 2.43727 220.204 2.66127 221.24 3.92127C222.864 5.93727 224.74 8.14927 226.756 10.3333C228.632 12.4053 230.592 14.9533 232.244 16.8573C232.3 16.9133 232.328 16.9413 232.384 16.9413C232.44 16.9413 232.468 16.8853 232.468 16.7173C232.468 16.6893 232.468 16.6613 232.468 16.6333C232.384 15.5973 232.356 14.0013 232.356 12.4333C232.356 10.7253 232.384 9.01727 232.384 7.98127C232.384 7.75727 232.384 7.56127 232.384 7.42127C232.356 4.28527 232.664 2.68927 229.22 2.26927C229.052 2.12927 228.968 1.96127 228.968 1.79327C228.968 1.62527 229.08 1.45728 229.304 1.45728C229.304 1.45728 231.348 1.59727 233.392 1.59727C234.428 1.59727 235.436 1.56927 236.192 1.45728C236.22 1.45728 236.22 1.45728 236.248 1.45728C236.416 1.45728 236.5 1.59727 236.5 1.79327C236.5 1.96127 236.444 2.12927 236.276 2.26927Z" fill="white"/>
<path d="M212.828 16.7172C212.492 17.8932 211.428 19.9932 211.148 20.8052C211.092 20.9452 210.924 21.0572 210.476 21.0572C210.476 21.0572 206.304 20.9732 202.468 20.9732C200.34 20.9732 198.296 21.0012 197.176 21.0852H197.148C196.924 21.0852 196.812 20.9452 196.812 20.7772C196.812 20.6372 196.896 20.4412 197.092 20.3012C198.968 20.1332 199.276 20.0492 199.5 19.1252C199.668 18.4812 199.696 14.7852 199.696 7.6172C199.696 2.9692 199.64 2.2412 196.98 2.2412C196.812 2.1292 196.728 1.9332 196.728 1.7932C196.728 1.5972 196.812 1.4572 196.98 1.4572C197.008 1.4572 197.008 1.4572 197.036 1.4572C197.764 1.5412 199.108 1.5692 200.648 1.5692C204.12 1.5692 208.628 1.4292 209.3 1.4292C209.356 1.4292 209.384 1.4292 209.384 1.4292C209.524 1.4292 209.888 1.4292 209.888 1.7092V1.7372C209.888 1.8492 209.86 1.9612 209.86 2.1012C209.86 2.9132 210.056 4.0332 210.056 4.9572C210.056 5.0132 210.056 5.0692 210.056 5.1252C210.056 5.3492 209.832 5.4612 209.636 5.4612C209.524 5.4612 209.412 5.4332 209.384 5.3492C208.264 2.5492 207.228 2.2692 204.26 2.2692C203.588 2.2692 203 2.2972 202.468 2.4092C201.684 2.4932 201.684 3.4732 201.684 7.0572C201.684 7.9252 201.712 8.8492 201.712 9.6612C201.712 10.0812 202.076 10.1372 203.42 10.1372C203.84 10.1372 204.204 10.1092 204.596 10.0532C205.492 9.9692 207.088 10.1932 207.536 7.6732C207.564 7.5052 207.788 7.3932 207.984 7.3932C208.18 7.3932 208.348 7.4772 208.348 7.7012C208.348 7.7012 208.348 7.7292 208.348 7.7572C208.236 8.4572 208.208 9.3532 208.208 10.2212C208.208 11.9572 208.348 13.6092 208.348 13.6092C208.348 13.6092 208.348 13.6092 208.348 13.6372C208.348 13.8052 208.18 13.8612 207.984 13.8612C207.76 13.8612 207.564 13.7772 207.536 13.6092C207.34 11.0052 205.38 10.9492 203.336 10.9492C201.768 10.9492 201.712 10.9492 201.712 11.4532C201.712 11.7332 201.712 12.2092 201.712 12.7692C201.712 19.1812 201.712 19.6852 204.568 20.1892C204.848 20.2452 205.156 20.2732 205.548 20.2732C208.236 20.2732 210.168 19.4612 212.156 16.4652C212.212 16.3812 212.296 16.3252 212.38 16.3252C212.604 16.3252 212.828 16.5212 212.828 16.6892V16.7172Z" fill="white"/>
<path d="M193.491 6.77728C193.491 11.0893 189.627 12.3213 186.939 12.3213C186.491 12.3213 186.323 12.0973 186.323 11.8733C186.323 11.6773 186.463 11.4813 186.659 11.4813C186.743 11.4813 186.799 11.4813 186.883 11.4813C189.431 11.4813 191.251 10.1093 191.251 7.39327C191.251 6.91727 191.223 2.29727 186.799 2.29727C185.959 2.29727 184.839 2.46527 184.839 3.66928C184.811 4.20128 184.783 4.81727 184.783 5.79727C184.783 6.02127 184.783 6.27327 184.783 6.55327C184.783 8.65327 184.755 10.6973 184.755 12.5733C184.755 13.4973 184.755 14.3933 184.783 15.2333C184.951 19.8813 185.091 20.0213 187.695 20.2453C187.863 20.3853 187.947 20.5813 187.947 20.7213C187.947 20.9173 187.835 21.0573 187.639 21.0853C187.639 21.0853 185.511 20.8893 183.327 20.8893C182.235 20.8893 181.143 20.9453 180.275 21.0853C180.247 21.0853 180.247 21.0853 180.219 21.0853C180.079 21.0853 179.967 20.9453 179.967 20.7493C179.967 20.5813 180.023 20.3853 180.219 20.2453C182.571 19.9933 182.627 20.1333 182.739 15.2053C182.767 14.1133 182.767 11.9573 182.767 9.99727C182.767 8.56927 182.767 7.25327 182.739 6.55327C182.627 2.40927 182.655 2.68927 180.135 2.38128C179.967 2.26927 179.883 2.07327 179.883 1.90527C179.883 1.70927 179.995 1.54127 180.191 1.54127H180.219C181.115 1.59727 181.871 1.62527 182.543 1.62527C183.915 1.62527 185.063 1.54127 186.715 1.45728C186.855 1.45728 186.995 1.45728 187.135 1.45728C190.607 1.45728 193.491 3.41727 193.491 6.77728Z" fill="white"/>
<path d="M175.987 11.3413C175.987 16.7733 172.431 21.4493 165.991 21.4493C159.607 21.4493 155.967 16.7453 155.967 11.3413C155.967 5.62928 160.279 1.00928 166.075 1.00928C172.151 1.00928 175.987 5.62928 175.987 11.3413ZM173.439 11.6773C173.439 6.77728 171.115 1.90528 165.907 1.90528C160.671 1.90528 158.543 6.63728 158.543 10.8093C158.543 12.4893 159.075 20.5813 166.187 20.5813C171.619 20.5813 173.439 16.0173 173.439 11.6773Z" fill="white"/>
<path d="M145.047 10.4732C145.719 10.8652 145.999 11.3972 145.999 11.8452C145.999 12.2932 145.719 12.6572 145.215 12.6572C144.963 12.6572 144.655 12.5452 144.291 12.2932C142.639 11.0892 141.575 10.4732 139.335 9.91319C139.335 10.7252 139.307 11.5932 139.307 12.4332C139.307 15.8212 139.391 19.0972 139.391 19.2932C139.391 20.1892 139.335 21.8972 138.579 21.8972C137.879 21.8972 137.543 20.3852 137.543 19.6572C137.543 19.2372 137.599 18.7612 137.711 18.2012C137.879 17.3332 137.879 17.7252 137.991 16.7732C138.131 15.6812 138.243 11.9852 138.243 8.76519C138.243 4.73319 138.215 1.98919 136.703 1.98919C136.395 1.98919 136.227 1.87719 136.227 1.68118C136.227 1.45719 136.507 1.06519 137.067 1.06519C137.571 1.06519 139.895 1.82118 139.895 3.52919C139.895 4.08919 139.643 4.73319 139.531 5.85319C139.419 6.74919 139.363 8.09319 139.335 9.60519H139.811C141.883 9.60519 143.591 9.60519 145.047 10.4732Z" fill="white"/>
<path d="M118.643 1.37329C119.679 1.37329 121.611 2.52129 121.611 3.38929C121.611 4.06129 120.687 4.64929 120.239 5.34929C119.595 6.38529 118.811 7.47729 117.887 8.54129C118.615 8.76529 119.147 9.57729 119.147 10.1653C119.147 10.3053 119.119 10.4173 119.063 10.5013C118.895 10.8093 118.867 12.9933 118.867 15.0933C118.867 17.1933 118.895 19.2093 118.895 19.2933C118.923 19.5173 118.923 19.7133 118.923 19.8813C118.923 20.2453 118.783 21.9253 118.083 21.9253C117.635 21.9253 117.075 21.1413 117.075 19.6853C117.075 19.2933 117.131 18.8453 117.215 18.3693C117.411 17.2493 117.579 17.5293 117.607 16.2973C117.635 14.3093 117.635 12.9373 117.663 11.2853C117.663 10.5573 117.551 9.63329 117.271 9.21329C112.259 14.7853 107.135 16.8853 106.435 16.8853C106.379 16.8853 106.351 16.8573 106.351 16.8293C106.351 16.7733 106.575 16.5773 106.855 16.4373C112.567 13.3293 119.175 5.46129 119.175 3.24929C119.175 2.71729 118.811 2.40929 117.971 2.15729C117.775 2.10129 117.719 2.01729 117.719 1.93329C117.719 1.84929 117.971 1.37329 118.643 1.37329Z" fill="white"/>
<path d="M100.026 6.30123C100.39 6.30123 103.274 6.74923 103.274 7.75723C103.274 8.14923 102.854 8.45723 102.266 8.45723C102.154 8.45723 102.042 8.42923 101.902 8.40123C100.474 8.09323 98.8783 7.92523 97.1703 7.92523C96.4703 7.92523 95.7424 7.95323 94.9864 8.00923C94.9864 8.23323 94.9584 8.48523 94.9584 8.76523C94.7904 19.4052 85.6903 22.1772 85.0743 22.1772C85.0183 22.1772 84.9903 22.1492 84.9903 22.1212C84.9903 22.0652 85.2424 21.8412 85.9704 21.4212C90.3944 18.8732 93.3903 14.5612 93.6423 8.51323V8.14923C92.1863 8.28923 90.7304 8.45723 89.2744 8.65323C89.2744 9.35323 89.3024 10.1092 89.4984 11.7612C89.5264 12.0412 89.5544 12.2372 89.5544 12.4052C89.5544 13.0772 89.2464 14.1132 88.7144 14.1132C88.3784 14.1132 88.0704 13.6372 88.0704 12.6012C88.0704 12.5172 88.0704 12.3772 88.0704 12.2652C88.1544 11.1732 88.2104 10.4452 88.2104 9.66123C88.2104 9.38123 88.2103 9.10123 88.1824 8.79323L86.5863 9.04523C85.5503 9.24123 84.4583 9.71723 83.3943 9.71723C82.3583 9.71723 79.8943 8.93323 79.8943 7.84123C79.8943 7.81323 79.8943 7.78523 79.8943 7.78523C79.8943 7.39323 79.9784 7.28123 80.1464 7.28123C80.3424 7.28123 80.6504 7.50523 80.9304 7.58923C82.3024 8.00923 83.1984 8.23323 84.3744 8.23323C84.7384 8.23323 85.1304 8.23323 85.5504 8.17723C86.3904 8.09323 87.2584 7.98123 88.1264 7.89723C87.9584 5.62923 87.7624 4.28523 86.1664 4.14523C85.9984 4.11723 85.8584 4.00523 85.8584 3.83723C85.8584 3.66923 86.1943 3.30523 86.8943 3.30523C87.6223 3.30523 89.6104 4.20123 89.6104 5.01323C89.6104 5.20923 89.4984 5.34923 89.4424 5.46123C89.3024 5.79723 89.2464 6.72123 89.2464 7.00123C89.2464 7.28123 89.2744 7.53323 89.2744 7.75723C90.7864 7.58923 92.2703 7.42123 93.6703 7.25323C93.6703 6.60923 93.6984 5.99323 93.7544 5.18123C93.7824 4.84523 93.7823 4.56523 93.7823 4.28523C93.7823 2.40923 93.2224 1.82123 92.3264 1.70923C92.1584 1.68123 91.9623 1.54123 91.9623 1.37323C91.9623 1.20523 92.2984 0.813232 92.8584 0.813232C93.8384 0.813232 95.9104 2.18523 95.9104 2.82923C95.9104 3.10923 95.7424 3.36123 95.6304 3.61323C95.2664 4.36923 95.1544 4.78923 95.0144 7.11323C96.0224 7.00123 96.9744 6.88923 97.8144 6.77723C98.9624 6.63723 99.2704 6.30123 100.026 6.30123Z" fill="white"/>
<path d="M64.9973 20.2732C65.1933 20.4132 65.3053 20.6092 65.3053 20.7492C65.3053 20.9172 65.1933 21.0572 64.9133 21.0572C64.9133 21.0572 62.6733 20.8892 60.1813 20.8892C58.9493 20.8892 57.6333 20.9172 56.5413 21.0572C56.5133 21.0572 56.4853 21.0572 56.4853 21.0572C56.2893 21.0572 56.1493 20.9452 56.1493 20.7772C56.1493 20.6092 56.2613 20.4412 56.4853 20.2732C59.9853 19.8532 59.7333 19.5452 59.8733 16.4652C59.9293 15.4572 59.9853 12.9652 59.9853 10.4172C59.9853 8.51318 59.9573 6.55318 59.8453 5.09719C59.8453 4.78918 59.5933 4.64918 59.5093 4.64918C58.5573 4.67718 56.7933 5.15318 56.7933 5.15318H56.7653C56.5133 5.15318 56.3173 4.98519 56.3173 4.76118C56.3173 4.64918 56.4013 4.48118 56.5693 4.34118C58.6973 3.72518 61.0773 2.21318 61.3853 1.79318C61.5253 1.62518 61.7213 1.51318 61.8613 1.51318C62.0573 1.51318 62.2253 1.68118 62.2253 2.07318C62.2253 2.12918 62.2253 2.18518 62.2253 2.24118C61.9733 4.42518 61.9173 9.10118 61.9173 12.8252C61.9173 14.2532 61.9173 15.5692 61.9453 16.4372C62.0293 19.5732 61.9733 19.9372 64.9973 20.2732Z" fill="white"/>
<path d="M51.1138 11.3692C51.1138 16.6612 49.0978 21.3932 45.4578 21.3932C41.3978 21.3932 39.6618 16.8012 39.6618 11.5092C39.6618 6.18919 41.7618 1.51318 45.2898 1.51318C49.2098 1.51318 51.1138 6.10518 51.1138 11.3692ZM48.7898 11.4532C48.7898 6.88918 48.2298 2.18518 45.2898 2.18518C42.7978 2.18518 41.9578 6.94518 41.9578 11.4812C41.9578 15.8492 42.5178 20.6652 45.4858 20.6652C48.0338 20.6652 48.7898 15.8492 48.7898 11.4532Z" fill="white"/>
<path d="M35.1838 19.7692C35.1838 20.6372 34.4838 21.3372 33.6438 21.3372C32.7758 21.3372 32.0758 20.6372 32.0758 19.7692C32.0758 18.9292 32.7758 18.2292 33.6158 18.2292C34.4838 18.2292 35.1838 18.9292 35.1838 19.7692Z" fill="white"/>
<path d="M23.9324 10.5852C25.6404 11.6212 27.5164 13.0212 27.5164 16.2132C27.5164 18.8172 25.4724 21.3652 21.6924 21.3652C18.8924 21.3652 16.2324 19.5732 16.2324 16.2132C16.2324 13.8052 17.9404 12.0412 19.7044 11.0332C19.7884 11.0052 19.8444 10.9212 19.8444 10.8372C19.8444 10.8092 19.8164 10.7812 19.7884 10.7532C18.0804 9.85719 16.9044 8.37318 16.9044 6.35718C16.9044 3.08118 19.7884 1.51318 22.0284 1.51318C24.5484 1.51318 26.7884 3.30519 26.7884 6.07718C26.7884 8.00918 25.6684 9.35319 23.9044 10.3052C23.9044 10.3052 23.8764 10.3892 23.8764 10.4452C23.8764 10.5012 23.9044 10.5572 23.9324 10.5852ZM24.8564 5.88119C24.8564 3.58519 23.8764 2.26918 21.8044 2.26918C20.2364 2.26918 18.6404 3.64118 18.6404 5.88119C18.6404 8.26118 21.8324 9.85719 22.5044 9.85719C22.8124 9.85719 24.8564 8.79319 24.8564 5.88119ZM25.7524 16.8292C25.7524 13.2732 21.3004 11.5932 20.8804 11.5932C20.6844 11.5932 18.1084 13.1892 18.1084 16.5492C18.1084 18.7052 19.4244 20.6092 21.8884 20.6092C24.0724 20.6092 25.7524 18.9012 25.7524 16.8292Z" fill="white"/>
<path d="M12.289 11.3692C12.289 16.6612 10.273 21.3932 6.63301 21.3932C2.57301 21.3932 0.837006 16.8012 0.837006 11.5092C0.837006 6.18919 2.93701 1.51318 6.46501 1.51318C10.385 1.51318 12.289 6.10518 12.289 11.3692ZM9.96501 11.4532C9.96501 6.88918 9.40501 2.18518 6.46501 2.18518C3.97301 2.18518 3.13301 6.94518 3.13301 11.4812C3.13301 15.8492 3.69301 20.6652 6.66101 20.6652C9.20901 20.6652 9.96501 15.8492 9.96501 11.4532Z" fill="white"/>
</svg>
