<svg width="458" height="37" viewBox="0 0 458 37" fill="none" xmlns="http://www.w3.org/2000/svg">
<path d="M446.15 21.3968C447.991 21.765 457.648 26.4708 457.648 29.7034C457.648 30.4809 457.157 31.0537 456.543 31.0537C456.093 31.0537 455.52 30.7264 455.029 29.9898C453.229 27.3301 449.505 24.0974 446.6 22.2561C446.231 22.0106 445.986 21.8469 445.863 21.7241C436.984 31.5857 427.613 32.977 427.245 32.977C427.122 32.977 427.04 32.977 427.04 32.8951C427.04 32.7314 427.613 32.4041 428.268 32.1176C440.871 26.839 449.382 14.2359 449.382 12.3945C449.382 11.9444 449.137 11.617 448.4 11.617C447.009 11.617 442.712 13.2129 441.321 13.7857C439.889 14.3586 439.357 14.686 438.661 14.686C437.27 14.686 434.324 13.2947 434.324 11.9853C434.324 11.4124 434.528 11.2078 434.774 11.2078C434.979 11.2078 435.183 11.3715 435.265 11.5761C435.47 12.0262 436.288 12.1899 437.27 12.1899C438.17 12.1899 439.193 12.0671 440.094 11.9444C441.485 11.7807 445.168 10.9623 446.682 10.7577C447.909 10.5531 448.523 9.57104 449.423 9.57104C450.16 9.57104 453.515 10.5122 453.515 12.0262C453.515 12.2717 453.433 12.4763 453.147 12.6809C452.369 13.172 451.837 13.3766 451.06 14.686C449.546 17.1821 447.909 19.3917 446.15 21.3968Z" fill="white"/>
<path d="M423.26 9.28472C423.26 10.4714 416.672 21.2332 402.636 30.4401C402.104 30.8083 401.777 31.2175 401.49 31.5449C401.163 31.9132 400.877 32.2814 400.345 32.2814C399.117 32.2814 395.557 30.3991 395.557 28.6396C395.557 28.1077 395.885 27.5348 396.007 27.5348C396.13 27.5348 396.253 27.6575 396.457 27.8621C397.071 28.5578 397.767 29.0079 398.749 29.0079C403.659 29.0079 418.472 14.5633 422.523 9.85759C422.932 9.40748 423.137 9.20288 423.219 9.20288C423.26 9.20288 423.26 9.2438 423.26 9.28472ZM395.639 11.3307C399.24 11.3307 403.373 12.4355 403.373 14.8498C403.373 15.6272 402.882 16.2819 402.186 16.2819C401.777 16.2819 401.327 16.0773 400.795 15.6272C398.462 13.4994 396.335 12.8856 393.552 11.9445C393.266 11.8217 393.143 11.7399 393.143 11.658C393.143 11.4944 394.33 11.3307 395.639 11.3307Z" fill="white"/>
<path d="M376.161 24.9567C376.693 24.9567 380.908 25.7341 380.908 27.1663C380.908 27.7392 380.253 28.1484 379.517 28.1484C379.353 28.1484 379.23 28.1484 379.067 28.1075C376.734 27.5346 374.115 27.33 371.497 27.33C366.177 27.33 360.776 28.2302 357.338 28.9259C355.947 29.2123 355.497 29.4169 354.76 29.4169C353.574 29.4169 349.891 28.7213 349.891 26.6753C349.891 26.2661 350.014 26.1433 350.259 26.1433C350.546 26.1433 350.914 26.3889 351.323 26.5525C352.469 27.1663 354.106 27.2482 355.047 27.2482C355.661 27.2482 355.783 27.2482 363.886 26.3479C364.09 24.8748 364.377 21.8059 364.377 20.0873C364.377 19.187 364.336 16.4454 363.354 15.5452C359.916 16.1999 359.343 16.1999 359.18 16.1999C356.806 16.1999 355.333 14.9314 355.333 13.8675C355.333 13.4174 355.579 13.4174 355.579 13.4174C355.743 13.4174 355.947 13.4992 356.07 13.622C356.847 14.1949 357.993 14.3585 359.303 14.3585C360.939 14.3585 362.863 14.113 367.937 13.0082C369.696 12.6399 369.86 11.6169 371.619 11.6169C372.52 11.6169 374.852 11.9034 374.852 13.0491C374.852 13.5811 374.197 14.0721 373.174 14.113C371.21 14.1539 367.65 14.7677 364.54 15.3406C364.949 15.4634 366.545 16.0362 366.545 18.2868C366.545 19.3507 366.463 19.9645 365.563 26.1433C368.305 25.816 371.005 25.5705 373.215 25.4477C374.77 25.3659 375.22 24.9567 376.161 24.9567Z" fill="white"/>
<path d="M329.565 4.90625C331.079 4.90625 333.903 6.58395 333.903 7.85245C333.903 8.83452 332.552 9.69382 331.898 10.7168C330.957 12.2308 329.811 13.8267 328.46 15.3816C329.524 15.709 330.302 16.8956 330.302 17.755C330.302 17.9595 330.261 18.1232 330.179 18.246C329.934 18.6961 329.893 21.8878 329.893 24.9568C329.893 28.0257 329.934 30.9719 329.934 31.0947C329.975 31.422 329.975 31.7085 329.975 31.954C329.975 32.4859 329.77 34.9411 328.747 34.9411C328.092 34.9411 327.274 33.7954 327.274 31.6676C327.274 31.0947 327.356 30.44 327.478 29.7443C327.765 28.1076 328.01 28.5168 328.051 26.7163C328.092 23.811 328.092 21.806 328.133 19.3917C328.133 18.3278 327.969 16.9775 327.56 16.3637C320.236 24.5067 312.747 27.5756 311.724 27.5756C311.643 27.5756 311.602 27.5347 311.602 27.4938C311.602 27.4119 311.929 27.1255 312.338 26.9209C320.686 22.3788 330.343 10.8805 330.343 7.64785C330.343 6.87038 329.811 6.42027 328.583 6.05199C328.297 5.97015 328.215 5.8474 328.215 5.72464C328.215 5.60188 328.583 4.90625 329.565 4.90625Z" fill="white"/>
<path d="M304.405 12.1081C304.937 12.1081 309.151 12.7628 309.151 14.2359C309.151 14.8088 308.538 15.2589 307.678 15.2589C307.515 15.2589 307.351 15.218 307.146 15.1771C305.059 14.7269 302.727 14.4814 300.231 14.4814C299.208 14.4814 298.144 14.5223 297.039 14.6042C297.039 14.9315 296.998 15.2998 296.998 15.709C296.753 31.2584 283.454 35.3094 282.554 35.3094C282.472 35.3094 282.431 35.2685 282.431 35.2276C282.431 35.1457 282.799 34.8184 283.863 34.2046C290.328 30.4809 294.707 24.1793 295.075 15.3407V14.8088C292.947 15.0134 290.819 15.2589 288.692 15.5453C288.692 16.5683 288.733 17.6731 289.019 20.0874C289.06 20.4966 289.101 20.783 289.101 21.0285C289.101 22.0106 288.651 23.5246 287.873 23.5246C287.382 23.5246 286.932 22.829 286.932 21.315C286.932 21.1922 286.932 20.9876 286.932 20.8239C287.055 19.2281 287.137 18.1642 287.137 17.0184C287.137 16.6092 287.137 16.2 287.096 15.7499L284.763 16.1182C283.249 16.4046 281.653 17.1003 280.099 17.1003C278.584 17.1003 274.984 15.9545 274.984 14.3587C274.984 14.3177 274.984 14.2768 274.984 14.2768C274.984 13.704 275.106 13.5403 275.352 13.5403C275.638 13.5403 276.088 13.8676 276.498 13.9904C278.503 14.6042 279.812 14.9315 281.531 14.9315C282.063 14.9315 282.636 14.9315 283.249 14.8497C284.477 14.7269 285.745 14.5633 287.014 14.4405C286.768 11.126 286.482 9.1619 284.15 8.9573C283.904 8.91638 283.699 8.7527 283.699 8.50719C283.699 8.26167 284.19 7.72972 285.213 7.72972C286.277 7.72972 289.183 9.03914 289.183 10.2258C289.183 10.5122 289.019 10.7168 288.937 10.8805C288.733 11.3715 288.651 12.7219 288.651 13.1311C288.651 13.5403 288.692 13.9086 288.692 14.2359C290.901 13.9904 293.07 13.7449 295.116 13.4994C295.116 12.5582 295.157 11.658 295.239 10.4713C295.28 9.98029 295.28 9.57109 295.28 9.1619C295.28 6.4203 294.461 5.56099 293.152 5.39731C292.906 5.35639 292.62 5.15179 292.62 4.90628C292.62 4.66076 293.111 4.08789 293.929 4.08789C295.361 4.08789 298.389 6.09294 298.389 7.03409C298.389 7.44328 298.144 7.81156 297.98 8.17983C297.448 9.28466 297.285 9.89845 297.08 13.2948C298.553 13.1311 299.944 12.9674 301.172 12.8037C302.85 12.5991 303.3 12.1081 304.405 12.1081Z" fill="white"/>
<path d="M262.135 18.2461H261.521C260.171 18.2461 258.739 18.5326 257.879 18.7781C257.675 18.819 257.552 18.8599 257.429 18.8599C257.225 18.8599 257.143 18.7781 257.143 18.6962C257.143 18.6144 257.306 18.4507 257.634 18.328C257.716 18.287 261.726 16.773 261.726 15.1772C261.726 13.8677 260.457 12.5583 258.902 12.5583C258.288 12.5583 255.629 12.7629 255.629 18.0824C255.629 19.3509 255.751 20.7013 255.833 21.847C255.997 24.2613 257.02 26.0617 257.02 27.8622C257.02 30.0718 254.36 35.3095 246.913 35.3095C243.844 35.3095 239.056 34.0819 239.056 29.2125C239.056 28.3941 239.179 27.5757 239.384 26.7164H239.179C236.724 26.7164 235.824 22.0107 235.824 20.2512C235.824 18.9008 236.315 16.4457 238.524 16.4457C239.466 16.4457 240.448 16.8958 241.102 17.5914V11.9036C240.489 12.0264 239.875 12.0673 239.343 12.0673C236.233 12.0673 234.923 9.3666 234.923 8.79373C234.923 8.63005 235.005 8.58913 235.128 8.58913C235.374 8.58913 235.824 8.79373 236.274 9.162C237.297 9.93947 238.361 10.1441 239.425 10.1441C239.998 10.1441 240.529 10.1031 241.102 10.0213C241.102 9.24384 241.143 8.50729 241.184 7.85258V7.48431C241.184 6.33856 240.816 5.92937 240.366 5.43833C240.202 5.23374 240.038 5.11098 240.038 4.9473C240.038 4.7427 240.489 3.92432 241.225 3.92432C241.839 3.92432 243.435 4.45627 243.435 5.92937V6.33856C245.031 6.95235 245.726 7.03419 246.135 7.03419C246.995 7.03419 248.1 7.15695 248.1 8.13902C248.1 8.34361 247.895 10.2668 242.575 11.5762C242.289 13.9087 242.166 16.4866 242.084 18.9417C242.453 19.5965 242.616 20.2921 242.616 21.0286C242.616 22.0107 242.289 23.0746 241.716 24.3022C241.02 25.7753 240.243 27.5348 240.243 29.1307C240.243 33.4272 245.89 33.4272 246.463 33.4272C249.941 33.4272 255.138 31.7086 255.138 26.6346C255.138 26.43 255.097 26.2254 255.097 26.0208C254.892 22.9928 254.729 20.7013 254.729 18.8599C254.729 17.1822 254.769 11.5353 258.78 11.5353C260.989 11.5353 264.099 13.2949 264.099 16.282C264.099 17.3459 263.567 18.2461 262.135 18.2461ZM239.302 24.5886C239.998 24.5886 240.857 23.1155 240.857 21.5197C240.857 19.5555 239.466 17.5505 238.32 17.5505C237.501 17.5505 236.929 18.5326 236.929 20.0057C236.929 22.7063 238.443 24.5886 239.302 24.5886ZM243.066 8.46637L242.821 9.73487C243.598 9.5712 245.767 9.08016 245.767 8.30269C245.767 8.17994 245.767 8.17994 243.353 6.8296L243.066 8.46637Z" fill="white"/>
<path d="M220.52 32.5268C220.52 32.895 220.315 35.0638 213.154 35.0638C209.39 35.0638 208.49 33.7544 208.49 31.9948V31.5856C208.53 31.1764 208.53 26.1843 208.53 5.60179C208.53 5.47903 208.571 5.02892 208.571 4.37421C208.571 3.55582 208.53 2.45099 208.326 1.59168C208.285 1.46893 208.285 1.34617 208.285 1.30525C208.285 1.18249 208.326 1.14157 208.53 1.14157C208.735 1.14157 211.968 1.63261 211.968 2.49191C211.968 2.69651 211.763 2.94203 211.272 3.22846C210.576 3.63766 210.495 3.76042 210.454 4.988C210.413 5.92914 210.413 9.85741 210.372 14.3585C215.2 10.3075 216.141 8.67075 216.428 7.68868C216.469 7.56592 216.51 7.48408 216.592 7.48408C217.001 7.48408 219.251 10.1438 219.251 10.6349C219.251 10.9213 219.006 11.085 218.515 11.085C218.351 11.085 218.228 11.085 218.065 11.0441C217.901 11.0032 217.737 11.0032 217.615 11.0032C217.492 11.0032 217.369 11.0032 217.164 11.1259C216.141 11.7397 212.254 13.9084 210.372 14.8905C210.372 15.9135 210.331 16.9365 210.331 17.9595C212.213 18.205 219.579 19.5144 219.579 22.747C219.579 23.4017 219.21 23.9337 218.597 23.9337C218.147 23.9337 217.615 23.6473 217.001 22.9107C215.159 20.742 212.541 19.4326 210.331 18.205C210.331 20.5374 210.29 22.8698 210.29 24.9158C210.29 27.821 210.331 30.1534 210.372 31.0537C210.454 32.5268 210.454 33.1406 213.032 33.1406C213.973 33.1406 215.282 33.0587 216.141 32.8951C218.147 32.4859 218.147 29.867 218.678 26.6753C218.719 26.5116 218.719 26.4298 218.76 26.4298C218.965 26.4298 219.17 31.0128 219.783 31.4219C220.233 31.7084 220.52 32.1176 220.52 32.5268ZM188.725 35.7594C188.275 35.7594 188.357 35.7185 188.153 35.3911C187.702 34.6955 184.634 32.895 184.634 32.5268C184.634 32.4859 184.634 32.4449 184.756 32.4449C184.838 32.4449 184.961 32.4859 185.125 32.5268C186.516 32.895 187.58 33.0587 188.357 33.0587C189.953 33.0587 190.444 32.3631 190.485 31.2583C190.526 28.6394 190.526 24.7112 190.526 20.7011C189.38 21.3558 187.621 22.3378 186.393 22.9516C186.025 23.1562 185.943 23.5245 185.697 23.5245C185.247 23.5245 183.57 21.3149 183.57 21.1103C183.57 21.0693 183.651 21.0693 183.856 21.0284C185.657 20.8647 186.802 20.6192 190.526 19.0643C190.526 16.2818 190.526 13.5402 190.485 11.1668C188.971 11.1668 188.194 11.2078 185.738 11.5351H185.697C185.206 11.5351 184.102 10.0211 184.102 9.57097C187.048 10.0211 188.848 10.1438 190.485 10.1438C190.485 8.62983 190.403 7.27948 190.403 6.33834C190.403 5.31535 190.362 2.94203 189.953 0.977894C189.912 0.855135 189.871 0.732378 189.871 0.691459C189.871 0.650538 189.912 0.609619 189.994 0.609619C190.28 0.609619 194.127 1.18249 194.127 2.0418C194.127 2.32824 193.799 2.65559 193.431 2.86019C192.449 3.35122 192.49 2.81927 192.408 5.31535L192.285 10.1438H192.858C192.981 10.1438 193.227 9.93925 193.349 9.73465C194.331 8.05696 194.618 8.01604 194.782 8.01604C194.863 8.01604 194.945 8.01603 194.986 8.05696C195.927 8.54799 197.359 10.0211 197.359 10.594C197.359 10.8395 197.237 11.1668 196.664 11.1668H192.245C192.204 13.5811 192.204 16.0362 192.204 18.4096C194.25 17.5503 195.886 16.691 197.073 16.0362C197.237 15.9544 197.359 15.9135 197.4 15.9135C197.482 15.9135 197.523 15.9544 197.523 15.9953C197.523 16.1181 197.441 16.2818 197.319 16.3636C196.091 17.182 194.372 18.4096 192.204 19.7599C192.204 22.2969 192.245 24.7112 192.285 26.7981C192.285 27.1254 192.49 30.9309 192.49 31.6675C192.49 34.1635 190.239 35.6776 188.725 35.7594ZM206.157 2.2464C206.239 2.28732 206.525 2.49191 206.525 2.73743C206.525 2.94203 206.362 3.18754 205.871 3.43306C205.257 3.76042 205.134 3.7195 205.134 4.86524C205.134 5.27443 205.175 5.80639 205.175 6.54294C205.175 7.97512 205.257 18.2459 205.257 18.3687V18.5323C205.257 26.9208 202.27 33.4679 193.799 35.8003C193.308 35.9231 192.94 35.964 192.695 35.964C192.531 35.964 192.408 35.964 192.408 35.8822C192.408 35.7594 192.776 35.5548 193.595 35.2684C200.551 32.8541 203.17 25.6523 203.334 18.8597C201.942 20.5783 199.896 23.0335 197.973 24.9976C197.769 25.2022 197.687 25.7341 197.4 25.7341C197.155 25.7341 194.863 23.6882 194.863 23.4427C194.863 23.4017 194.904 23.4017 195.027 23.3608C197.81 22.747 201.861 19.228 203.334 17.9185V17.7958C203.334 12.5581 203.293 3.47398 202.72 1.87812C202.679 1.75536 202.638 1.67353 202.638 1.63261C202.638 1.55077 202.72 1.50985 202.884 1.50985H203.047C203.17 1.50985 205.38 1.8372 206.157 2.2464ZM197.155 9.48913C197.482 9.48913 202.188 11.1668 202.188 13.8266C202.188 14.7268 201.656 15.3406 201.083 15.3406C200.592 15.3406 200.101 14.9723 199.815 13.9903C199.487 12.9673 198.137 10.7986 197.319 9.98017C197.114 9.77557 197.032 9.65281 197.032 9.57097C197.032 9.53005 197.073 9.48913 197.155 9.48913Z" fill="white"/>
<path d="M146.947 34.2455C145.146 34.2455 143.878 29.7444 143.878 25.857C143.878 24.4249 144.041 23.1154 144.287 21.8469C144.819 18.9826 145.76 16.5274 146.21 14.195C146.415 13.172 146.456 12.2718 146.456 11.4534C146.456 8.95732 145.76 7.40239 145.474 6.95227C145.31 6.70676 145.024 6.54308 145.024 6.3794C145.024 6.21572 145.719 6.1748 145.842 6.1748C146.047 6.1748 148.747 7.11595 148.747 11.1261C148.747 12.3946 148.379 13.5403 147.765 15.0543C146.66 17.7959 145.433 21.2332 145.433 24.0975C145.433 25.6934 145.801 26.921 146.128 26.921C146.251 26.921 146.456 26.7164 146.701 26.1844C147.151 25.0796 150.016 18.5325 150.711 18.5325C150.752 18.5325 150.793 18.5734 150.793 18.6552C150.793 18.778 150.752 19.0235 150.589 19.3918C149.688 21.4377 147.479 26.921 147.479 30.1536C147.479 31.1766 147.642 32.0359 147.806 32.7315C147.847 32.8952 147.847 33.0589 147.847 33.1816C147.847 33.8363 147.479 34.2455 146.947 34.2455ZM168.675 29.2943H169.002C170.107 29.2943 170.68 29.7444 170.68 30.3582C170.68 31.954 167.038 32.5269 164.46 32.5269C156.686 32.5269 155.622 28.1485 155.622 27.5347C155.622 27.3711 155.663 27.2892 155.785 27.2892C155.949 27.2892 156.276 27.5757 156.604 28.0258C157.504 29.2943 160.286 30.1536 163.355 30.1536C164.092 30.1536 164.869 30.1127 165.647 29.9899C166.547 29.8672 167.038 29.417 168.675 29.2943ZM168.429 11.658C168.429 13.4175 163.806 13.7449 161.964 13.7449C156.44 13.7449 156.113 10.5532 156.113 10.5532C156.113 10.4304 156.154 10.3895 156.235 10.3895C156.358 10.3895 156.563 10.5123 156.849 10.6759C158.159 11.4125 159.427 11.658 160.859 11.658C161.882 11.658 162.987 11.5352 164.215 11.3716C164.869 11.2897 165.279 10.9215 165.852 10.7987C166.22 10.7169 166.547 10.6759 166.834 10.6759C167.857 10.6759 168.429 11.1261 168.429 11.658Z" fill="white"/>
<path d="M106.846 12.9673C107.132 12.9673 110.242 13.4992 110.242 14.4813C110.242 14.6859 110.078 14.9723 109.546 15.1769C108.933 15.4634 108.728 15.8316 108.728 16.8546V18.4914C108.728 22.2969 108.81 30.358 109.055 34.3681V34.4091C109.055 34.941 108.523 35.5139 107.951 35.5139C107.5 35.5139 107.091 35.1865 107.091 34.4909V34.45C107.091 34.0408 107.132 33.5907 107.132 33.1406H94.9381V35.0229C94.9381 35.7185 94.3243 36.1686 93.7924 36.1686C93.4241 36.1686 93.0558 35.8822 93.0558 35.2274V35.1456C93.1377 33.7134 93.3832 26.6344 93.3832 18.8188C93.3832 17.5093 93.2604 14.5631 92.974 13.3765C92.9331 13.2537 92.9331 13.1719 92.9331 13.131C92.9331 13.09 92.9331 13.0491 93.0149 13.0491C93.465 13.0491 96.4112 13.7857 96.4112 14.5222C96.4112 14.7268 96.2066 14.9723 95.6338 15.2997C95.0609 15.627 95.02 15.8316 95.02 16.9365V20.1282C97.516 20.4965 99.2347 20.5374 100.503 20.5374C100.503 17.3047 100.339 13.7857 100.135 13.0491C100.094 12.9264 100.094 12.8854 100.094 12.8036C100.094 12.7218 100.135 12.7218 100.258 12.7218C100.871 12.7218 103.531 13.4992 103.531 14.1949C103.531 14.4404 103.327 14.6859 102.999 14.8496C102.099 15.3815 101.976 14.9723 101.894 16.5273C101.813 17.673 101.772 19.0234 101.772 20.5374H104.268C104.35 20.5374 104.554 20.4555 104.677 20.2509C104.882 19.9236 105.332 19.1461 105.536 19.1461C105.618 19.1461 105.659 19.187 105.7 19.228C106.15 19.5962 106.805 20.1282 107.132 20.6601V19.1461C107.132 17.2638 107.132 14.4404 106.846 13.2537C106.805 13.131 106.805 13.0491 106.805 13.0082C106.805 12.9673 106.805 12.9673 106.846 12.9673ZM123.582 18.2868C123.745 18.2868 126.241 19.4325 126.241 20.3328C126.241 20.6192 125.955 20.8647 125.587 21.0693C124.809 21.5194 124.768 21.233 124.727 22.7061V26.1843C124.727 26.7571 124.809 28.0665 124.809 28.8849C124.768 31.3401 121.781 31.8721 121.372 31.8721C121.086 31.8721 120.963 31.6675 120.84 31.4219C120.513 30.6036 117.935 29.335 117.935 29.0077C117.935 29.0077 117.976 28.9668 118.099 28.9668C118.18 28.9668 118.385 29.0077 118.671 29.0486C119.613 29.2532 120.595 29.4578 121.372 29.4578C123.009 29.4578 123.009 29.0077 123.009 25.8978C123.009 24.1383 122.968 22.256 122.968 21.0284C122.968 20.8647 122.968 20.5374 122.559 20.5374H118.59C118.59 20.5783 118.63 20.6192 118.63 20.701C118.63 20.8647 118.508 21.0693 118.262 21.1512C117.812 21.3148 117.771 21.4785 117.771 22.0105C117.73 23.0335 117.73 24.2201 117.73 25.4477C117.73 28.844 117.812 32.6086 117.935 35.1865V35.2684C117.935 36.1686 117.198 36.6596 116.666 36.6596C116.216 36.6596 115.889 36.3323 115.889 35.5957V35.473C116.012 32.7723 116.053 29.8261 116.053 27.1663C116.053 25.816 116.012 24.5475 116.012 23.4427C116.012 23.1153 115.971 21.6013 115.889 20.6192L112.083 20.8647H112.042C111.429 20.8647 110.201 19.4326 110.201 18.9415V18.9006C113.393 19.3098 116.748 19.4325 118.549 19.4325H122.19C122.436 19.4325 122.641 19.3098 122.722 19.1052C122.845 18.8597 123.213 18.5323 123.336 18.3686C123.377 18.3277 123.459 18.2868 123.582 18.2868ZM107.132 32.0357V21.2739C107.05 21.3558 106.968 21.4376 106.764 21.4376H101.772V22.8289C106.273 23.6882 106.273 25.6523 106.273 25.816C106.273 26.4707 105.864 27.0026 105.332 27.0026C105.004 27.0026 104.636 26.7571 104.309 26.1843C103.736 25.1203 102.754 23.9746 101.813 23.2381C101.854 25.1613 101.894 27.33 102.017 29.6624V29.7442C102.017 30.5626 101.444 31.0537 100.912 31.0537C100.503 31.0537 100.176 30.7263 100.176 29.9898V29.7852C100.38 27.5346 100.462 25.3249 100.503 23.3199C99.2756 25.9387 97.4342 28.0256 94.9381 29.2941V32.0357H107.132ZM108.933 8.62982C109.465 8.62982 111.51 10.1438 111.51 10.7985C111.51 11.085 111.347 11.3305 110.815 11.3305H98.3754C96.4521 11.3305 95.9611 11.3305 92.5239 11.6579H92.483C91.7464 11.6579 90.5597 10.2257 90.5597 9.73464V9.69372C92.7285 9.98016 94.3653 10.1438 95.7156 10.2257V8.91626C95.7156 5.60178 95.3473 3.47397 95.3064 3.22846C95.2655 3.06478 95.2655 2.98294 95.2655 2.94202C95.2655 2.9011 95.2655 2.86018 95.3064 2.86018C95.7156 2.86018 98.8664 3.47397 98.8664 4.1696C98.8664 4.3742 98.6618 4.53788 98.4572 4.66064C97.4751 5.27443 97.3115 4.78339 97.2705 6.99304C97.2705 7.64775 97.2296 8.17971 97.2296 8.67074C97.2296 9.16177 97.2705 9.65281 97.2705 10.3075C97.7206 10.3075 98.1298 10.3484 98.539 10.3484H100.749V8.42522C100.749 5.35627 100.667 2.6965 100.339 1.18248C100.299 1.05973 100.299 0.977887 100.299 0.896049C100.299 0.855128 100.339 0.814209 100.38 0.814209C100.626 0.814209 103.899 1.46892 103.899 2.12363C103.899 2.32823 103.695 2.49191 103.49 2.61467C102.508 3.22846 102.345 2.73742 102.304 4.94707V6.13373H105.332C105.413 6.13373 105.659 6.01098 105.741 5.80638C105.823 5.68362 106.682 4.33328 106.968 4.33328C107.091 4.33328 107.173 4.33328 107.255 4.3742C108.073 4.78339 109.465 5.92914 109.465 6.58385C109.465 6.87028 109.26 7.15672 108.728 7.15672H102.263C102.263 8.22062 102.304 9.36637 102.304 10.3484H107.05C107.296 10.3484 107.459 10.1438 107.582 9.98016C107.91 9.48913 108.523 8.62982 108.933 8.62982ZM128.656 14.2358C128.983 14.3995 129.147 14.5222 129.147 14.6041C129.147 14.9314 127.019 14.9723 125.914 15.627C125.832 15.668 125.75 15.7089 125.669 15.7089C125.096 15.7089 120.472 9.44821 118.59 4.3742C115.275 12.8445 109.874 17.3866 109.178 17.3866C109.096 17.3866 109.096 17.3457 109.096 17.3047C109.096 17.2229 109.301 16.9365 109.751 16.4454C112.984 13.09 116.994 5.23351 116.994 1.38708C116.994 1.14157 116.994 1.05972 117.076 1.05972C117.321 1.05972 120.84 2.20547 120.84 2.6965C120.84 2.98294 120.349 3.26937 119.449 3.39213C119.244 3.43305 119.121 3.47397 118.999 3.59673C121.086 7.93419 124.605 12.4762 128.656 14.2358ZM100.053 21.5194C98.7845 21.6013 97.4751 21.765 96.4112 21.8468H96.3703C96.002 21.8468 95.3882 21.2739 95.02 20.742C95.02 23.0335 94.9381 25.9387 94.9381 28.7622C97.1887 26.8799 99.7257 22.6243 100.053 21.5194ZM121.454 12.2307C122.763 12.8854 123.786 14.1539 123.786 14.8087C123.786 15.0133 123.664 15.1769 123.173 15.1769H118.999C117.567 15.1769 116.994 15.1769 114.825 15.5043H114.784C114.375 15.5043 113.393 13.9903 113.393 13.622C115.93 14.0721 117.607 14.1539 119.081 14.1539H119.613C119.694 14.1539 119.858 14.0312 119.981 13.8266C120.063 13.7038 121.004 12.1898 121.29 12.1898C121.331 12.1898 121.413 12.1898 121.454 12.2307ZM104.35 15.0542C104.595 15.0542 106.723 15.9544 106.723 16.4454C106.723 16.65 106.436 16.8546 105.905 16.8955C105.577 16.9365 105.577 17.0183 105.373 17.2638C104.841 17.9185 102.958 19.8827 102.672 19.8827C102.549 19.8827 102.467 19.8417 102.467 19.719C102.467 19.6781 102.467 19.6371 102.508 19.5962C103.736 17.5503 103.859 17.0183 104.186 15.3815C104.227 15.1769 104.227 15.0542 104.35 15.0542ZM96.5749 15.9953C97.557 16.0772 99.3983 16.9365 99.3983 18.164C99.3983 18.7369 98.9891 19.187 98.4981 19.187C98.1708 19.187 97.8025 18.9415 97.5979 18.3277C97.3933 17.7139 96.8204 16.8137 96.3703 16.4045C96.1657 16.2408 96.0839 16.1181 96.0839 16.0772C96.0839 15.9953 96.2066 15.9953 96.5749 15.9953Z" fill="white"/>
<path d="M78.4885 22.2561C79.3887 22.2561 82.1713 24.6704 82.1713 25.4887C82.1713 25.7343 81.9667 25.9798 81.271 25.9798H66.54C66.54 29.6625 66.6219 33.1816 66.7037 35.5549V35.5958C66.7037 36.4552 65.7217 36.9462 65.1897 36.9462C64.6578 36.9462 64.2076 36.6188 64.2076 35.8004V35.7186C64.3304 33.0998 64.4122 29.5398 64.4941 25.9798H59.6656C57.3741 25.9798 51.3589 26.0616 47.6353 26.4299H47.5944C46.8169 26.4299 45.6302 24.834 45.6302 24.3021C48.2081 24.6294 52.0546 24.7931 55.2054 24.875C55.2463 23.7701 55.2463 22.7062 55.2463 21.7651V19.5554C55.2463 19.2281 55.2054 15.709 54.7553 13.8676C54.7143 13.7858 54.7143 13.7039 54.7143 13.663C54.7143 13.5812 54.7553 13.5403 54.7962 13.5403C54.878 13.5403 57.5787 14.686 58.1106 15.1361L58.2743 15.2589H64.6168L64.6578 13.0083C64.6578 11.3715 64.6578 8.79361 64.5759 7.68879H56.3511C50.9497 15.0134 46.5304 17.4276 45.9985 17.4276C45.9167 17.4276 45.9167 17.3867 45.9167 17.3458C45.9167 17.2639 46.1213 17.0184 46.5714 16.6911C49.5176 14.4405 56.392 5.8065 57.4969 0.568811C57.5378 0.364214 57.5787 0.241455 57.6605 0.241455C57.7014 0.241455 61.3024 1.91915 61.3024 2.77846C61.3024 3.10581 60.8932 3.31041 59.9111 3.35133C59.2155 3.35133 59.1745 3.55593 58.6017 4.45616C58.1516 5.15179 57.6196 5.88834 57.0877 6.66581H73.3736C73.6191 6.66581 73.8646 6.50213 74.0283 6.29753C75.174 4.86535 75.7469 4.16972 75.9924 4.16972C76.6062 4.16972 79.5933 6.09293 79.5933 7.15684C79.5933 7.44327 79.3888 7.68879 78.734 7.68879H67.6858C67.7267 7.72971 67.7676 7.81155 67.7676 7.85247C67.7676 8.05707 67.4403 8.26166 67.2357 8.3435C66.7446 8.5481 66.6628 8.62994 66.6219 11.658C66.6219 12.64 66.581 13.9085 66.581 15.2589H71.4504C71.6959 15.2589 71.9414 15.0952 72.1051 14.8906C72.678 14.195 73.7828 12.9674 74.0283 12.9674C75.0513 12.9674 77.3837 15.177 77.3837 15.8727C77.3837 16.0773 77.1791 16.2819 76.5244 16.2819H66.581C66.581 18.9007 66.54 21.9697 66.54 24.9568H75.6651C75.9515 24.9568 76.2789 24.7931 76.4016 24.5885C77.752 22.6653 78.0793 22.2561 78.4885 22.2561ZM64.6168 16.2819H57.9879C57.8651 16.4046 57.7014 16.4865 57.4969 16.6092C57.0467 16.8957 57.0467 18.2869 57.0467 24.9159C58.2743 24.9568 59.2564 24.9568 59.8702 24.9568H64.4941L64.6168 16.2819Z" fill="white"/>
<path d="M19.8919 30.6446C21.7333 29.2124 23.4519 27.3301 23.4519 26.9618C23.4519 26.8391 23.3291 26.7572 23.0427 26.7572H16.5365C17.314 28.3531 18.4597 29.6216 19.8919 30.6446ZM36.587 33.9181C36.7507 33.9181 36.8735 33.8772 36.9553 33.8772C37.119 33.8772 37.2008 33.9181 37.2008 33.9591C37.2008 34.2046 34.2137 35.2276 32.9861 36.4142C32.8224 36.5779 32.6997 36.6188 32.4951 36.6188C29.9581 36.4961 24.5567 35.3912 20.4238 32.4041C15.1043 35.9641 9.86664 36.4142 5.69285 36.7825C5.40642 36.8234 5.20182 36.8234 4.99722 36.8234C4.58803 36.8234 4.42435 36.7825 4.42435 36.7007C4.42435 36.5779 4.79263 36.4142 5.48826 36.2915C8.67997 35.7595 14.2041 34.6956 19.0326 31.2584C17.6822 30.0308 16.5365 28.5577 15.8 26.7572H14.8997C9.41652 34.5319 2.05103 36.2915 1.60091 36.2915C1.47815 36.2915 1.43723 36.2505 1.43723 36.2096C1.43723 36.1278 1.72367 35.9232 2.33746 35.6777C6.26573 34.1637 12.1172 29.417 15.0225 23.2382H14.8179C12.6901 23.2382 7.49331 23.32 3.27861 23.6883H3.23769C2.50114 23.6883 1.35539 22.1743 1.35539 21.6423C6.38848 22.1743 12.8128 22.297 15.0225 22.297H15.4317L15.9227 20.9467C16.1273 20.3329 16.2501 19.4736 16.291 18.9825C16.291 18.778 16.291 18.737 16.4137 18.737C16.6183 18.737 19.6464 19.5963 19.6464 20.292C19.6464 20.5375 19.319 20.783 18.5416 20.9058C17.9278 20.9876 17.8459 21.1922 17.3958 22.297H29.3443C29.5898 22.297 29.8762 22.1333 30.0399 21.9287C30.5309 21.274 31.4721 20.3738 31.7585 20.1283C31.9222 20.0055 32.004 19.9646 32.1268 19.9646C32.6178 19.9646 35.7277 21.7651 35.7277 22.7471C35.7277 22.9927 35.5231 23.2382 34.8684 23.2382H16.9866C16.5774 24.1384 16.0455 24.9568 15.5544 25.7752H23.2064C23.411 25.7752 23.6974 25.6524 23.9838 25.4887C24.2294 25.366 24.5158 25.0795 24.7204 25.0386H24.8431C24.925 25.0386 25.0477 25.0386 25.1705 25.0795C25.2114 25.0795 27.5029 26.2253 27.5029 26.88C27.5029 27.2074 27.2574 27.5347 26.6027 27.6984C25.8252 27.903 25.5797 27.9439 25.0477 28.5168C23.902 29.7444 22.7153 30.7673 21.5287 31.6267C25.0068 33.468 29.467 34.0818 33.3135 34.0818C34.4592 34.0818 35.564 34 36.587 33.9181ZM31.2675 5.97017C31.3084 5.97017 33.8454 7.52511 33.8454 8.22074C33.8454 8.46625 33.5181 8.62993 32.9861 8.62993C32.7815 8.62993 32.536 8.58901 32.2905 8.54809C32.1268 8.50717 32.004 8.50717 31.9222 8.50717C31.6767 8.50717 31.5949 8.58901 31.2266 8.79361C29.0988 10.0621 24.6385 11.617 21.2013 12.149C21.2013 12.4354 20.9967 12.681 20.342 12.681H9.29376L9.53928 12.8037C9.74388 12.8856 9.82572 13.0083 9.82572 13.1311C9.82572 13.2947 9.62112 13.4584 9.21193 13.4584C8.63905 13.4584 8.51629 13.9495 8.22986 14.4814C7.82066 15.2589 7.32963 16.1591 6.8386 16.9366C10.2349 16.3637 13.5085 15.6681 15.3498 15.177C14.6951 14.6042 13.9177 14.1131 13.1402 13.7039C12.9356 13.6221 12.8947 13.5403 12.8947 13.4993C12.8947 13.4584 13.0584 13.4584 13.1402 13.4175C13.4266 13.3766 13.7949 13.3766 14.1223 13.3766C16.8229 13.3766 18.1733 14.5632 18.1733 15.8317C18.1733 16.4455 17.8459 16.8957 17.3958 16.8957C17.0685 16.8957 16.7002 16.6911 16.291 16.1591C16.1682 15.9954 16.0455 15.8317 15.8818 15.6681C13.0993 16.7729 7.20687 18.6552 4.46527 19.3508C3.93332 19.4736 3.6878 19.8828 3.40137 19.8828C2.95125 19.8828 1.43723 17.714 1.43723 17.4685C1.43723 17.3867 1.51907 17.3867 1.72367 17.3867C3.07401 17.3867 4.9563 17.223 5.97929 17.0593C6.8386 14.3587 7.00228 13.0083 7.00228 12.7219C5.61102 12.7628 4.30159 12.8446 2.74666 13.0083H2.70574C2.05103 13.0083 0.905281 11.7807 0.905281 11.2079V11.1669C2.66482 11.3715 4.50619 11.5352 6.18389 11.617V9.16188C6.18389 7.60694 6.18389 3.67868 5.73377 1.34627C5.69285 1.18259 5.69285 1.10076 5.69285 1.05984C5.69285 0.977998 5.69285 0.977998 5.73377 0.977998C5.89745 0.977998 7.69791 1.79639 8.55721 2.36926H15.1862C15.268 2.36926 15.5135 2.2465 15.5954 2.0419C15.8818 1.42811 16.4956 0.446045 16.7411 0.446045C16.8639 0.446045 16.9866 0.486964 17.0685 0.527885C17.9687 0.977998 19.2372 2.36926 19.2372 2.81937C19.2372 3.06489 19.0326 3.39224 18.5006 3.39224H8.92549C8.84365 3.47408 8.76181 3.59684 8.63905 3.67868C7.94342 4.25155 7.77975 4.04695 7.77975 5.43822V5.52005H13.4266C13.5085 5.52005 13.7131 5.3973 13.8358 5.23362C13.9586 5.06994 14.6951 4.00604 15.0634 4.00604H15.1452C15.4317 4.16971 17.1912 5.23362 17.1912 6.01109C17.1912 6.2566 17.0685 6.4612 16.6183 6.4612H7.77975V8.58901H13.4266C13.5085 8.58901 13.7131 8.46625 13.8358 8.30258C14.6133 7.15683 14.8997 7.07499 15.0225 7.07499C15.3089 7.07499 17.1912 8.46625 17.1912 9.08004C17.1912 9.32556 17.0685 9.53016 16.6183 9.53016H7.73883V11.6989H16.5774C16.5774 11.6989 16.9048 11.5761 17.0275 11.3715C17.2731 11.0033 18.0914 9.77568 18.5416 9.77568C18.6234 9.77568 18.7052 9.77568 18.7871 9.81659C19.7691 10.1849 20.5057 10.8396 20.9558 11.5352C27.7075 9.4074 30.3673 7.32051 31.0629 6.21568C31.1447 6.09293 31.1857 5.97017 31.2675 5.97017ZM32.7815 11.0033C32.9861 11.0033 35.6459 12.7219 35.6459 13.3766C35.6459 13.7039 35.3185 13.9904 34.6229 13.9904C34.5001 13.9904 34.3365 13.9495 34.2137 13.9495C34.0909 13.9085 33.9682 13.9085 33.8454 13.9085C33.559 13.9085 33.3953 13.9904 33.068 14.195C28.7305 16.8138 22.2652 18.6552 15.7181 18.6552C14.245 18.6552 13.5494 18.5734 13.5494 18.4097C13.5494 18.3278 13.7949 18.246 14.3269 18.246C20.5466 18.0005 30.49 14.8906 32.6178 11.2488C32.6997 11.126 32.6997 11.0033 32.7815 11.0033ZM30.5719 0.446045C30.8174 0.446045 33.1907 1.96006 33.1907 2.65569C33.1907 2.98305 32.7815 3.14673 32.1677 3.14673C32.004 3.14673 31.8404 3.14673 31.6358 3.10581H31.3903C31.1447 3.10581 30.9811 3.14673 30.7355 3.3104C25.7025 6.33844 19.851 7.36143 18.2142 7.36143C17.8868 7.36143 17.7232 7.36143 17.7232 7.27959C17.7232 7.19775 17.9687 7.11591 18.4597 6.99315C21.8151 6.2566 28.6896 3.39224 30.4082 0.691563C30.49 0.568804 30.49 0.446045 30.5719 0.446045Z" fill="white"/>
</svg>
