<svg width="492" height="40" viewBox="0 0 492 40" fill="none" xmlns="http://www.w3.org/2000/svg">
<path d="M491.838 2.88519C491.7 3.71319 491.7 4.63319 491.7 7.20919C491.746 7.80719 491.746 8.40519 491.746 8.95719C491.746 10.9812 491.608 10.9812 491.148 10.9812C490.872 10.9812 490.596 10.8432 490.504 10.6592C489.492 7.43919 489.538 6.10519 484.662 5.46119C483.742 5.32319 482.96 5.27719 482.316 5.27719C479.74 5.27719 479.418 5.41519 479.188 6.15119C478.958 7.39319 478.866 12.0852 478.866 17.0532C478.866 19.8592 478.866 23.3092 478.912 26.0232C478.912 32.7392 478.912 34.0272 483.742 34.6252C484.064 34.8552 484.202 35.1772 484.202 35.4072C484.202 35.7292 484.018 35.9592 483.65 35.9592C483.604 35.9592 479.832 35.6372 475.968 35.6372C474.036 35.6372 472.104 35.7292 470.632 35.9592C470.586 35.9592 470.586 35.9592 470.54 35.9592C470.264 35.9592 470.126 35.7292 470.126 35.4072C470.126 35.1312 470.264 34.8092 470.54 34.5792C475.462 33.7972 475.37 33.7512 475.462 25.9312C475.508 23.8612 475.508 21.4692 475.508 19.3072C475.508 17.1452 475.508 15.2132 475.462 14.1092C475.462 13.7412 475.462 6.97919 475.186 6.24319C475.14 6.15119 475.324 5.59919 474.45 5.46119C474.128 5.41519 472.794 5.32319 471.368 5.32319C466.4 5.32319 465.296 5.82919 463.134 10.9812C462.996 11.2112 462.766 11.3492 462.49 11.3492C462.168 11.3492 461.846 11.1652 461.846 10.8432C461.846 10.8432 461.846 10.7972 461.846 10.7512C462.444 7.66919 463.364 4.72519 463.594 2.83919C463.64 2.60919 463.962 2.47119 464.284 2.47119C464.56 2.47119 464.836 2.56319 464.928 2.79319C465.342 3.98919 466.446 4.08119 478.406 4.08119C486.824 4.08119 489.998 3.85119 490.688 2.74719C490.78 2.60919 490.964 2.51719 491.148 2.51719C491.47 2.51719 491.838 2.74719 491.838 2.88519Z" fill="white"/>
<path d="M458.612 5.09324C455.944 5.41524 454.978 6.38124 454.978 12.9592C454.978 13.2812 454.978 13.6032 454.978 13.9252C455.024 15.4892 455.024 16.4552 455.024 17.5592C455.024 18.7092 455.024 19.9972 454.978 22.2972C454.84 33.7512 449.044 36.5572 442.144 36.5572C433.128 36.5572 430 30.4852 430 22.3892C430 22.2512 430 22.1592 430 22.0212C430.046 19.6752 430.046 17.3752 430.046 16.0412C430.092 13.0972 430.23 10.9812 430.23 9.41724C430.23 6.05924 429.586 5.32324 425.906 5.09324C425.676 4.90924 425.538 4.63324 425.538 4.35724C425.538 4.03524 425.722 3.75924 426.044 3.75924C426.32 3.75924 429.034 3.98924 432.3 3.98924C434.186 3.98924 436.302 3.89724 438.234 3.66724C438.28 3.66724 438.28 3.66724 438.326 3.66724C438.648 3.66724 438.786 3.89724 438.786 4.17324C438.786 4.49524 438.648 4.81724 438.372 5.00124C432.852 5.69124 434.002 5.55324 433.588 16.2712C433.588 17.0072 433.542 17.8812 433.542 18.8012C433.542 27.4032 433.68 34.0732 442.742 34.0732C452.77 34.0732 452.862 25.9772 452.862 17.9732C452.862 16.4552 452.816 15.7192 452.77 14.7072C452.448 6.01324 452.494 5.64524 447.526 5.09324C447.296 4.95524 447.204 4.67924 447.204 4.35724C447.204 4.03524 447.342 3.75924 447.71 3.75924C447.71 3.75924 450.93 3.94324 454.15 3.94324C455.76 3.94324 457.324 3.89724 458.52 3.75924C458.566 3.75924 458.566 3.75924 458.612 3.75924C458.842 3.75924 458.98 3.98924 458.98 4.31124C458.98 4.58724 458.888 4.90924 458.612 5.09324Z" fill="white"/>
<path d="M420.338 26.5753C420.338 33.6593 413.484 36.0513 408.654 36.0513C408.608 36.0513 408.562 36.0513 408.516 36.0513C405.572 36.0053 402.72 35.6833 399.822 35.6833C398.626 35.6833 397.384 35.7293 396.142 35.9133C396.096 35.9133 396.096 35.9133 396.05 35.9133C395.774 35.9133 395.636 35.7293 395.636 35.4993C395.636 35.2233 395.774 34.9013 396.142 34.6253C400.098 34.3493 400.098 33.2913 400.236 29.2893C400.236 27.8173 400.282 25.8393 400.282 23.3093C400.328 22.2513 400.328 20.4113 400.328 18.6173C400.328 12.7293 400.19 9.18728 399.96 7.53128C399.868 6.70328 399.73 5.23128 396.51 5.23128C396.464 5.23128 396.418 5.23128 396.372 5.23128C396.096 5.23128 395.958 4.86328 395.958 4.49528C395.958 4.17328 396.05 3.89728 396.326 3.89728C396.372 3.89728 396.372 3.89728 396.372 3.89728C397.108 3.98928 397.982 3.98928 398.948 3.98928C401.616 3.98928 404.744 3.75928 406.86 3.75928C413.116 3.75928 417.67 5.78328 417.67 10.7053C417.624 15.5813 413.76 17.6973 410.724 18.1113C410.54 18.1573 410.356 18.2033 410.356 18.2493C410.356 18.2493 410.448 18.2953 410.77 18.2953C415.048 18.4793 420.338 21.3773 420.338 26.5753ZM413.806 11.5793C413.806 7.34728 411 5.04728 406.814 5.04728C403.824 5.04728 403.64 5.59928 403.548 7.48528C403.548 7.48528 403.548 7.48528 403.548 13.0053V16.7773C403.548 16.9613 403.594 17.7893 404.468 17.7893C404.514 17.7893 404.56 17.7893 404.652 17.7893C405.112 17.7433 406.078 17.6513 406.952 17.6053C409.114 17.5133 413.806 17.1913 413.806 11.5793ZM416.382 27.2653C416.382 23.2633 414.542 19.1233 407.688 19.1233C407.504 19.1233 407.32 19.1233 407.136 19.1233C404.376 19.1233 403.548 19.1693 403.548 20.2273C403.548 22.8033 403.548 26.1613 403.594 27.5413C403.778 32.6013 404.33 34.7173 408.746 34.7173C413.254 34.7173 416.382 31.2673 416.382 27.2653Z" fill="white"/>
<path d="M392.58 28.7832C392.028 30.7152 390.28 34.1652 389.82 35.4992C389.728 35.7292 389.452 35.9132 388.716 35.9132C388.716 35.9132 381.862 35.7752 375.56 35.7752C372.064 35.7752 368.706 35.8212 366.866 35.9592H366.82C366.452 35.9592 366.268 35.7292 366.268 35.4532C366.268 35.2232 366.406 34.9012 366.728 34.6712C369.81 34.3952 370.316 34.2572 370.684 32.7392C370.96 31.6812 371.006 25.6092 371.006 13.8332C371.006 6.19724 370.914 5.00124 366.544 5.00124C366.268 4.81724 366.13 4.49524 366.13 4.26524C366.13 3.94324 366.268 3.71324 366.544 3.71324C366.59 3.71324 366.59 3.71324 366.636 3.71324C367.832 3.85124 370.04 3.89724 372.57 3.89724C378.274 3.89724 385.68 3.66724 386.784 3.66724C386.876 3.66724 386.922 3.66724 386.922 3.66724C387.152 3.66724 387.75 3.66724 387.75 4.12724V4.17324C387.75 4.35724 387.704 4.54124 387.704 4.77124C387.704 6.10524 388.026 7.94524 388.026 9.46324C388.026 9.55524 388.026 9.64724 388.026 9.73924C388.026 10.1072 387.658 10.2912 387.336 10.2912C387.152 10.2912 386.968 10.2452 386.922 10.1072C385.082 5.50724 383.38 5.04724 378.504 5.04724C377.4 5.04724 376.434 5.09324 375.56 5.27724C374.272 5.41524 374.272 7.02524 374.272 12.9132C374.272 14.3392 374.318 15.8572 374.318 17.1912C374.318 17.8812 374.916 17.9732 377.124 17.9732C377.814 17.9732 378.412 17.9272 379.056 17.8352C380.528 17.6972 383.15 18.0652 383.886 13.9252C383.932 13.6492 384.3 13.4652 384.622 13.4652C384.944 13.4652 385.22 13.6032 385.22 13.9712C385.22 13.9712 385.22 14.0172 385.22 14.0632C385.036 15.2132 384.99 16.6852 384.99 18.1112C384.99 20.9632 385.22 23.6772 385.22 23.6772C385.22 23.6772 385.22 23.6772 385.22 23.7232C385.22 23.9992 384.944 24.0912 384.622 24.0912C384.254 24.0912 383.932 23.9532 383.886 23.6772C383.564 19.3992 380.344 19.3072 376.986 19.3072C374.41 19.3072 374.318 19.3072 374.318 20.1352C374.318 20.5952 374.318 21.3772 374.318 22.2972C374.318 32.8312 374.318 33.6592 379.01 34.4872C379.47 34.5792 379.976 34.6252 380.62 34.6252C385.036 34.6252 388.21 33.2912 391.476 28.3692C391.568 28.2312 391.706 28.1392 391.844 28.1392C392.212 28.1392 392.58 28.4612 392.58 28.7372V28.7832Z" fill="white"/>
<path d="M360.899 19.6753C360.899 28.4613 354.551 35.9133 343.419 35.9133C340.705 35.9133 336.657 35.5913 332.977 35.5913C331.275 35.5913 329.619 35.6833 328.193 35.8673C328.147 35.8673 328.147 35.8673 328.101 35.8673C327.917 35.8673 327.779 35.6833 327.779 35.4533C327.779 35.1773 327.963 34.8093 328.285 34.5793C331.321 34.3033 331.735 33.7053 332.149 32.4633C332.609 30.8533 332.609 22.4353 332.609 15.8573C332.563 13.6953 332.609 9.04928 332.287 7.53128C332.057 6.65728 332.011 5.46128 328.607 5.46128C328.331 5.27728 328.239 5.00128 328.239 4.72528C328.239 4.49528 328.377 4.26528 328.607 4.26528H328.653C329.527 4.35728 330.447 4.35728 331.367 4.35728C335.461 4.35728 339.601 3.75928 342.959 3.75928C352.527 3.75928 360.899 8.77328 360.899 19.6753ZM356.851 20.3653C356.851 9.32528 348.755 5.09328 342.177 5.09328C337.623 5.09328 336.565 5.55328 336.289 7.02528C336.105 8.08328 335.921 9.41728 335.921 21.0553C335.921 23.4933 335.967 25.6553 335.967 26.8513C335.967 27.0353 335.967 27.2653 335.967 27.4953C335.967 31.1753 336.013 34.6253 343.281 34.6253C348.985 34.6253 356.851 31.6813 356.851 20.3653Z" fill="white"/>
<path d="M305.34 26.3212C305.34 33.2212 301.68 37.7212 298.41 39.6712C298.38 39.6712 298.35 39.7012 298.32 39.7012C298.08 39.7012 297.78 39.4012 297.78 39.1912C297.78 39.1612 297.81 39.1012 297.87 39.0712C300.51 37.4812 303.21 32.4112 303.21 26.3212C303.21 20.5312 300.54 15.4012 297.87 13.8412C297.81 13.8112 297.81 13.7512 297.81 13.7212C297.81 13.5112 298.05 13.1812 298.29 13.1812C298.35 13.1812 298.38 13.1812 298.41 13.2112C301.68 15.1912 305.34 19.6312 305.34 26.3212Z" fill="white"/>
<path d="M294.918 35.3212C295.068 35.4412 295.128 35.6212 295.128 35.7712C295.128 35.9512 295.038 36.0712 294.858 36.0712C294.828 36.0712 292.998 35.9212 291.288 35.9212C290.418 35.9212 289.578 35.9512 289.038 36.0712C289.008 36.0712 289.008 36.0712 288.978 36.0712C288.798 36.0712 288.738 35.9512 288.738 35.8012C288.738 35.6512 288.828 35.4412 288.978 35.3212C290.928 35.1712 290.988 34.4512 290.988 30.6412C290.988 29.8312 290.988 28.6612 290.958 28.2112C290.838 25.9912 289.338 25.3012 288.168 25.3012C286.008 25.3012 284.928 26.7412 284.838 27.5812C284.778 28.3012 284.748 28.8712 284.748 31.5112C284.778 32.2312 284.748 33.1612 284.868 33.9712C284.988 34.8712 285.558 35.3212 286.878 35.3212C286.998 35.4412 287.058 35.5912 287.058 35.7412C287.058 35.9212 286.968 36.0712 286.818 36.0712C286.818 36.0712 285.048 35.9512 283.338 35.9512C282.468 35.9512 281.628 35.9812 280.998 36.0712H280.968C280.848 36.0712 280.758 35.9512 280.758 35.7712C280.758 35.6212 280.818 35.4712 280.968 35.3212C282.708 35.0812 282.738 34.8112 282.858 31.3012C282.858 28.3312 282.858 28.3312 282.858 28.3312C282.858 26.5912 282.858 25.7812 281.508 25.5112C281.358 25.4812 281.268 25.3312 281.268 25.1812C281.268 25.0312 281.358 24.8812 281.478 24.8512C282.678 24.6412 283.698 24.0412 284.388 23.7112C284.448 23.6812 284.478 23.6812 284.508 23.6812C284.628 23.6812 284.688 23.8012 284.688 24.0712C284.688 24.4012 284.658 25.0612 284.658 25.5712C284.658 25.6912 284.658 25.8112 284.658 25.9312C284.658 25.9912 284.688 26.0512 284.748 26.0512C284.778 26.0512 284.808 26.0212 284.838 25.9912C286.458 24.1012 287.958 23.9212 288.858 23.9212C291.078 23.9212 292.878 25.1812 292.968 27.7912V31.5112C292.968 34.4212 293.058 35.1412 294.918 35.3212Z" fill="white"/>
<path d="M277.781 30.2514C277.781 33.5814 275.471 36.4914 271.601 36.4914C267.671 36.4914 265.421 33.5514 265.421 30.2514C265.421 26.7414 268.061 23.8914 271.661 23.8914C275.441 23.8914 277.781 26.7414 277.781 30.2514ZM275.471 30.7314C275.471 28.9014 274.841 24.5814 271.511 24.5814C268.931 24.5814 267.701 27.0414 267.701 29.6214C267.701 30.5814 267.941 35.7414 271.841 35.7414C274.811 35.7414 275.471 32.8914 275.471 30.7314Z" fill="white"/>
<path d="M262.799 15.0112C262.859 15.0112 262.949 15.2512 262.949 15.4612C262.949 15.6412 262.919 15.7912 262.769 15.8812C260.909 16.0912 259.649 16.6312 259.469 18.2812C259.349 19.5112 259.319 21.3112 259.319 23.2612C259.319 25.6912 259.379 28.3612 259.439 30.4012C259.529 33.8212 259.439 34.9612 262.019 35.2012C262.139 35.3212 262.259 35.5612 262.259 35.7712C262.259 35.9512 262.169 36.0712 261.929 36.0712C261.929 36.0712 259.709 35.8912 257.459 35.8912C256.349 35.8912 255.239 35.9512 254.399 36.0712C254.369 36.0712 254.339 36.0712 254.339 36.0712C254.129 36.0712 254.009 35.9512 254.009 35.8012C254.009 35.6212 254.129 35.4112 254.339 35.2012C256.799 34.8712 257.159 34.6012 257.159 31.7512C257.159 31.4812 257.159 31.1812 257.159 30.8512C257.129 29.4412 257.099 26.9212 257.099 24.5212C257.099 22.4212 257.129 20.4412 257.189 19.3912C257.189 19.2712 257.159 19.2112 257.099 19.2112C256.949 19.2112 252.089 28.7212 249.389 34.6912C248.999 35.5912 248.849 35.8312 248.369 35.8312C248.339 35.8312 248.339 35.8312 248.339 35.8312C248.009 35.8312 247.889 35.5012 247.709 34.9012C247.379 33.6712 246.179 31.1212 244.799 28.2712C243.359 25.2112 241.979 22.6012 240.839 19.7812C240.689 19.3912 240.599 19.2412 240.539 19.2412C240.269 19.2412 239.879 28.7212 239.879 29.2312C239.909 34.9012 240.089 34.8712 242.429 35.2012C242.609 35.3812 242.669 35.5612 242.669 35.7412C242.669 35.9212 242.549 36.0412 242.369 36.0712C242.339 36.0712 240.449 35.8612 238.469 35.8612C237.479 35.8612 236.489 35.9212 235.679 36.0712C235.649 36.0712 235.649 36.0712 235.619 36.0712C235.469 36.0712 235.379 35.9512 235.379 35.7712C235.379 35.6212 235.469 35.3812 235.649 35.2012C238.169 34.9612 238.499 33.9112 238.739 29.5612C238.799 28.1212 239.219 21.6412 239.459 18.9112C239.459 18.7312 239.489 18.5812 239.489 18.4312C239.489 16.2712 238.109 16.0612 235.979 15.8512C235.829 15.7012 235.739 15.5212 235.739 15.3412C235.739 15.1312 235.859 14.9512 236.189 14.9512C236.189 14.9512 237.869 15.1012 239.489 15.1012C240.119 15.1012 240.749 15.0712 241.259 15.0112C241.289 15.0112 241.319 15.0112 241.349 15.0112C241.499 15.0112 241.529 15.0712 241.559 15.3412C241.589 15.7012 242.159 17.0212 242.369 17.5612C244.739 23.6212 248.099 28.8712 249.179 31.9012C249.209 32.0212 249.239 32.1112 249.269 32.1112C249.269 32.1112 249.299 32.0512 249.359 31.9912C255.539 19.9612 257.039 16.9612 257.309 15.7312C257.399 15.4012 257.519 15.1612 257.699 15.1312C257.699 15.1312 258.629 15.1612 259.769 15.1612C260.789 15.1612 261.989 15.1312 262.799 15.0112Z" fill="white"/>
<path d="M232.862 39.0712C232.922 39.1012 232.952 39.1612 232.952 39.1912C232.952 39.4012 232.652 39.7012 232.382 39.7012C232.352 39.7012 232.322 39.6712 232.292 39.6712C229.052 37.7212 225.392 33.2212 225.392 26.3212C225.392 19.6312 229.052 15.1912 232.292 13.2112C232.322 13.1812 232.382 13.1812 232.412 13.1812C232.652 13.1812 232.922 13.5112 232.922 13.7212C232.922 13.7512 232.922 13.8112 232.862 13.8412C230.192 15.4012 227.522 20.5312 227.522 26.3212C227.522 32.4112 230.192 37.4812 232.862 39.0712Z" fill="white"/>
<path d="M219.077 29.4733C218.433 32.9233 217.835 34.1193 217.651 35.4533C217.605 35.5453 217.513 35.8213 217.237 35.9133C217.237 35.9133 212.821 35.7293 208.037 35.7293C205.369 35.7293 202.609 35.7753 200.401 35.9593C200.033 35.9593 199.067 35.4073 199.067 34.9473C199.067 34.8553 199.159 34.7633 199.297 34.6713C203.253 32.4173 214.523 20.4573 214.523 11.8553C214.523 9.14128 213.419 6.79528 209.739 6.79528C206.657 6.79528 204.173 9.00328 202.471 12.0393C202.333 12.3153 202.103 12.4533 201.873 12.4533C201.505 12.4533 201.183 12.1313 201.183 11.7633C201.183 11.7633 203.759 3.75928 210.521 3.75928C215.351 3.75928 218.341 7.25528 218.341 11.8553C218.341 14.3393 217.513 17.0993 215.673 19.8133C212.591 24.4133 207.669 28.1853 205.139 32.1873C205.093 32.2793 205.047 32.3253 205.047 32.3713C205.047 32.6013 205.323 32.7853 205.507 32.8773C206.611 32.9693 207.531 33.0613 208.727 33.0613C213.097 33.0613 216.731 32.8313 218.065 29.1973C218.111 29.1053 218.249 29.0593 218.387 29.0593C218.709 29.0593 219.077 29.1973 219.077 29.4273C219.077 29.4733 219.077 29.4733 219.077 29.4733Z" fill="white"/>
<path d="M194.521 19.9972C194.521 28.6912 191.209 36.4652 185.229 36.4652C178.559 36.4652 175.707 28.9212 175.707 20.2272C175.707 11.4872 179.157 3.80518 184.953 3.80518C191.393 3.80518 194.521 11.3492 194.521 19.9972ZM190.703 20.1352C190.703 12.6372 189.783 4.90918 184.953 4.90918C180.859 4.90918 179.479 12.7292 179.479 20.1812C179.479 27.3572 180.399 35.2692 185.275 35.2692C189.461 35.2692 190.703 27.3572 190.703 20.1352Z" fill="white"/>
<path d="M168.81 33.7973C168.81 35.2233 167.66 36.3733 166.28 36.3733C164.854 36.3733 163.704 35.2233 163.704 33.7973C163.704 32.4173 164.854 31.2673 166.234 31.2673C167.66 31.2673 168.81 32.4173 168.81 33.7973Z" fill="white"/>
<path d="M156.581 14.2472H156.535C156.535 14.5232 156.535 14.7992 156.535 15.0292C156.535 32.9692 140.021 39.2712 139.285 39.2712C138.917 39.2712 138.733 38.9032 138.733 38.5812C138.733 38.2132 138.871 37.8912 139.193 37.7532C146.967 35.1312 153.039 25.5632 153.039 15.0752C153.039 11.5332 151.889 4.95518 147.059 4.95518C143.885 4.95518 141.263 7.94518 141.263 13.1892C141.263 16.9612 143.057 20.5032 146.231 20.5032C147.611 20.5032 149.037 19.7672 150.325 18.2952C150.463 18.1572 150.601 18.0652 150.739 18.0652C151.107 18.0652 151.429 18.3872 151.429 18.8472C151.429 19.7672 148.945 22.4352 145.587 22.4352C141.861 22.4352 137.813 19.4452 137.813 13.4192C137.813 9.09518 141.079 3.80518 147.197 3.80518C153.867 3.80518 156.443 10.1072 156.581 14.2472Z" fill="white"/>
<path d="M132.117 19.9972C132.117 28.6912 128.805 36.4652 122.825 36.4652C116.155 36.4652 113.303 28.9212 113.303 20.2272C113.303 11.4872 116.753 3.80518 122.549 3.80518C128.989 3.80518 132.117 11.3492 132.117 19.9972ZM128.299 20.1352C128.299 12.6372 127.379 4.90918 122.549 4.90918C118.455 4.90918 117.075 12.7292 117.075 20.1812C117.075 27.3572 117.995 35.2692 122.871 35.2692C127.057 35.2692 128.299 27.3572 128.299 20.1352Z" fill="white"/>
<path d="M106.406 33.7973C106.406 35.2233 105.256 36.3733 103.876 36.3733C102.45 36.3733 101.3 35.2233 101.3 33.7973C101.3 32.4173 102.45 31.2673 103.83 31.2673C105.256 31.2673 106.406 32.4173 106.406 33.7973Z" fill="white"/>
<path d="M95.4198 25.5634C95.1898 26.4834 95.1438 26.6214 93.4878 26.6214C92.8438 26.6214 91.9238 26.6214 91.0038 26.5754C90.9118 26.5754 90.7278 26.6674 90.7278 26.8514C90.7278 27.2194 90.7738 28.0934 90.7738 28.5074C90.9578 32.4174 90.3138 34.1654 94.4078 34.5794C94.6378 34.8094 94.7298 35.1314 94.7298 35.4074C94.7298 35.6834 94.5918 35.9134 94.2238 35.9134C94.1778 35.9134 91.5098 35.5454 88.5198 35.5454C87.0018 35.5454 85.4378 35.6374 84.0578 35.9134C84.0118 35.9134 83.9658 35.9134 83.9198 35.9134C83.6898 35.9134 83.5058 35.7294 83.5058 35.4534C83.5058 35.1774 83.6438 34.8554 83.9658 34.5794C87.5998 34.1654 87.5998 33.3834 87.5998 27.6334C87.5998 26.5754 87.5078 26.5294 87.3698 26.5294C86.7718 26.4834 85.7138 26.4834 84.5178 26.4834C81.8498 26.4834 78.3538 26.5754 76.9738 27.0354C76.6058 27.1274 76.3298 27.2194 76.0538 27.2194C75.7778 27.2194 73.9838 26.7134 73.9838 25.8854C73.9838 25.5174 74.3978 25.1034 74.8118 24.6894C76.5138 22.9874 79.6418 18.0194 82.7238 12.9134C85.6218 8.12937 88.2438 3.52937 89.0718 2.14937C89.6698 1.04537 90.5438 0.953369 92.1538 0.953369C92.7518 0.999369 93.0278 1.27537 93.0278 1.68937C93.0278 1.91937 92.8898 2.19537 92.7058 2.47137C90.7278 5.09337 88.8878 7.85337 87.2778 10.4754C84.0118 15.6274 81.2978 19.5374 78.3538 23.7234C78.2158 23.9534 78.0318 24.2754 78.0318 24.5514C78.0318 24.8274 78.2158 25.0574 78.7678 25.0574C78.8138 25.0574 78.9058 25.0574 78.9518 25.0574C81.8958 24.8734 84.9778 24.8734 87.4158 24.7814C87.5078 24.7814 87.5998 24.7354 87.5998 24.5054C87.5998 24.2754 87.5998 23.7694 87.5998 23.1254C87.5998 21.1934 87.5538 17.8814 87.4618 16.3174C87.4618 16.2254 87.4618 16.1334 87.4618 16.0414C87.4618 14.4774 90.1758 13.6034 90.4978 13.6034C90.7738 13.6034 91.0958 13.7414 91.0958 14.0634C91.0958 14.1094 91.0958 14.1554 91.0958 14.2014C90.7738 15.3974 90.7278 23.4474 90.7278 24.5054C90.7278 24.5974 90.8198 24.7354 90.9118 24.7354H90.9578C91.3258 24.7354 92.1998 24.6434 94.1318 24.4134C94.5458 24.3674 94.8218 24.3214 95.0518 24.3214C95.3738 24.3214 95.5578 24.4134 95.5578 24.7814C95.5578 24.9654 95.5118 25.2414 95.4198 25.5634Z" fill="white"/>
<path d="M69.5753 29.4733C68.9313 32.9233 68.3333 34.1193 68.1493 35.4533C68.1033 35.5453 68.0113 35.8213 67.7353 35.9133C67.7353 35.9133 63.3193 35.7293 58.5353 35.7293C55.8673 35.7293 53.1073 35.7753 50.8993 35.9593C50.5313 35.9593 49.5653 35.4073 49.5653 34.9473C49.5653 34.8553 49.6573 34.7633 49.7953 34.6713C53.7513 32.4173 65.0213 20.4573 65.0213 11.8553C65.0213 9.14128 63.9173 6.79528 60.2373 6.79528C57.1553 6.79528 54.6713 9.00328 52.9693 12.0393C52.8313 12.3153 52.6013 12.4533 52.3713 12.4533C52.0033 12.4533 51.6813 12.1313 51.6813 11.7633C51.6813 11.7633 54.2573 3.75928 61.0193 3.75928C65.8493 3.75928 68.8393 7.25528 68.8393 11.8553C68.8393 14.3393 68.0113 17.0993 66.1713 19.8133C63.0893 24.4133 58.1673 28.1853 55.6373 32.1873C55.5913 32.2793 55.5453 32.3253 55.5453 32.3713C55.5453 32.6013 55.8213 32.7853 56.0053 32.8773C57.1093 32.9693 58.0293 33.0613 59.2253 33.0613C63.5953 33.0613 67.2293 32.8313 68.5633 29.1973C68.6093 29.1053 68.7473 29.0593 68.8853 29.0593C69.2073 29.0593 69.5753 29.1973 69.5753 29.4273C69.5753 29.4733 69.5753 29.4733 69.5753 29.4733Z" fill="white"/>
<path d="M45.0189 19.9972C45.0189 28.6912 41.7069 36.4652 35.7269 36.4652C29.0569 36.4652 26.2049 28.9212 26.2049 20.2272C26.2049 11.4872 29.6549 3.80518 35.4509 3.80518C41.8909 3.80518 45.0189 11.3492 45.0189 19.9972ZM41.2009 20.1352C41.2009 12.6372 40.2809 4.90918 35.4509 4.90918C31.3569 4.90918 29.9769 12.7292 29.9769 20.1812C29.9769 27.3572 30.8969 35.2692 35.7729 35.2692C39.9589 35.2692 41.2009 27.3572 41.2009 20.1352Z" fill="white"/>
<path d="M20.1864 29.4733C19.5424 32.9233 18.9444 34.1193 18.7604 35.4533C18.7144 35.5453 18.6224 35.8213 18.3464 35.9133C18.3464 35.9133 13.9304 35.7293 9.14641 35.7293C6.47841 35.7293 3.71841 35.7753 1.51041 35.9593C1.14241 35.9593 0.176407 35.4073 0.176407 34.9473C0.176407 34.8553 0.268407 34.7633 0.406407 34.6713C4.36241 32.4173 15.6324 20.4573 15.6324 11.8553C15.6324 9.14128 14.5284 6.79528 10.8484 6.79528C7.76641 6.79528 5.28241 9.00328 3.58041 12.0393C3.44241 12.3153 3.21241 12.4533 2.98241 12.4533C2.61441 12.4533 2.29241 12.1313 2.29241 11.7633C2.29241 11.7633 4.86841 3.75928 11.6304 3.75928C16.4604 3.75928 19.4504 7.25528 19.4504 11.8553C19.4504 14.3393 18.6224 17.0993 16.7824 19.8133C13.7004 24.4133 8.77841 28.1853 6.24841 32.1873C6.20241 32.2793 6.15641 32.3253 6.15641 32.3713C6.15641 32.6013 6.43241 32.7853 6.61641 32.8773C7.72041 32.9693 8.64041 33.0613 9.83641 33.0613C14.2064 33.0613 17.8404 32.8313 19.1744 29.1973C19.2204 29.1053 19.3584 29.0593 19.4964 29.0593C19.8184 29.0593 20.1864 29.1973 20.1864 29.4273C20.1864 29.4733 20.1864 29.4733 20.1864 29.4733Z" fill="white"/>
</svg>
