<svg width="441" height="145" viewBox="0 0 441 145" fill="none" xmlns="http://www.w3.org/2000/svg">
<path d="M346.336 95.9079C346.137 97.1003 346.137 98.4252 346.137 102.135C346.204 102.996 346.204 103.857 346.204 104.652C346.204 107.567 346.005 107.567 345.342 107.567C344.945 107.567 344.548 107.368 344.415 107.103C342.958 102.466 343.024 100.545 336.002 99.6175C334.677 99.4188 333.551 99.3526 332.624 99.3526C328.914 99.3526 328.451 99.5513 328.119 100.611C327.788 102.4 327.656 109.156 327.656 116.311C327.656 120.351 327.656 125.32 327.722 129.228C327.722 138.899 327.722 140.754 334.677 141.615C335.141 141.947 335.34 142.41 335.34 142.741C335.34 143.205 335.075 143.536 334.545 143.536C334.479 143.536 329.047 143.073 323.482 143.073C320.7 143.073 317.918 143.205 315.798 143.536C315.732 143.536 315.732 143.536 315.666 143.536C315.268 143.536 315.07 143.205 315.07 142.741C315.07 142.344 315.268 141.88 315.666 141.549C322.754 140.423 322.621 140.357 322.754 129.095C322.82 126.115 322.82 122.67 322.82 119.557C322.82 116.443 322.82 113.661 322.754 112.071C322.754 111.541 322.754 101.804 322.356 100.744C322.29 100.611 322.555 99.8163 321.296 99.6175C320.833 99.5513 318.912 99.4188 316.858 99.4188C309.704 99.4188 308.114 100.147 305.001 107.567C304.802 107.898 304.471 108.097 304.073 108.097C303.61 108.097 303.146 107.832 303.146 107.368C303.146 107.368 303.146 107.302 303.146 107.235C304.007 102.797 305.332 98.5576 305.663 95.8417C305.729 95.5105 306.193 95.3118 306.657 95.3118C307.054 95.3118 307.452 95.4442 307.584 95.7755C308.18 97.4978 309.77 97.6302 326.993 97.6302C339.116 97.6302 343.686 97.299 344.68 95.7092C344.813 95.5105 345.078 95.378 345.342 95.378C345.806 95.378 346.336 95.7092 346.336 95.9079Z" fill="white"/>
<path d="M298.489 99.0875C294.647 99.5512 293.256 100.942 293.256 110.415C293.256 110.879 293.256 111.342 293.256 111.806C293.322 114.058 293.322 115.449 293.322 117.039C293.322 118.695 293.322 120.55 293.256 123.862C293.057 140.357 284.711 144.397 274.775 144.397C261.791 144.397 257.286 135.653 257.286 123.995C257.286 123.796 257.286 123.663 257.286 123.465C257.353 120.086 257.353 116.774 257.353 114.853C257.419 110.614 257.618 107.567 257.618 105.314C257.618 100.479 256.69 99.4187 251.391 99.0875C251.06 98.8225 250.861 98.425 250.861 98.0276C250.861 97.5639 251.126 97.1664 251.59 97.1664C251.987 97.1664 255.895 97.4976 260.599 97.4976C263.315 97.4976 266.362 97.3651 269.144 97.0339C269.21 97.0339 269.21 97.0339 269.276 97.0339C269.74 97.0339 269.939 97.3652 269.939 97.7626C269.939 98.2263 269.74 98.69 269.343 98.955C261.394 99.9486 263.05 99.7499 262.453 115.184C262.453 116.244 262.387 117.503 262.387 118.828C262.387 131.215 262.586 140.82 275.636 140.82C290.077 140.82 290.209 129.162 290.209 117.635C290.209 115.449 290.143 114.389 290.077 112.932C289.613 100.412 289.679 99.8824 282.525 99.0875C282.194 98.8887 282.061 98.4913 282.061 98.0276C282.061 97.5639 282.26 97.1664 282.79 97.1664C282.79 97.1664 287.427 97.4314 292.064 97.4314C294.382 97.4314 296.635 97.3652 298.357 97.1664C298.423 97.1664 298.423 97.1664 298.489 97.1664C298.821 97.1664 299.019 97.4976 299.019 97.9613C299.019 98.3588 298.887 98.8225 298.489 99.0875Z" fill="white"/>
<path d="M243.372 130.023C243.372 140.224 233.502 143.669 226.547 143.669C226.481 143.669 226.414 143.669 226.348 143.669C222.109 143.603 218.002 143.139 213.828 143.139C212.106 143.139 210.317 143.205 208.529 143.47C208.463 143.47 208.463 143.47 208.396 143.47C207.999 143.47 207.8 143.205 207.8 142.874C207.8 142.476 207.999 142.013 208.529 141.615C214.226 141.218 214.226 139.694 214.424 133.931C214.424 131.811 214.491 128.963 214.491 125.32C214.557 123.796 214.557 121.146 214.557 118.563C214.557 110.084 214.358 104.983 214.027 102.598C213.894 101.406 213.696 99.2863 209.059 99.2863C208.993 99.2863 208.926 99.2863 208.86 99.2863C208.463 99.2863 208.264 98.7563 208.264 98.2264C208.264 97.7627 208.396 97.3652 208.794 97.3652C208.86 97.3652 208.86 97.3652 208.86 97.3652C209.92 97.4977 211.179 97.4977 212.57 97.4977C216.412 97.4977 220.916 97.1665 223.963 97.1665C232.972 97.1665 239.53 100.081 239.53 107.169C239.464 114.191 233.9 117.238 229.528 117.834C229.263 117.9 228.998 117.967 228.998 118.033C228.998 118.033 229.13 118.099 229.594 118.099C235.755 118.364 243.372 122.537 243.372 130.023ZM233.966 108.428C233.966 102.333 229.925 99.0213 223.897 99.0213C219.591 99.0213 219.326 99.8162 219.194 102.532C219.194 102.532 219.194 102.532 219.194 110.481V115.913C219.194 116.178 219.26 117.37 220.519 117.37C220.585 117.37 220.651 117.37 220.784 117.37C221.446 117.304 222.837 117.172 224.096 117.106C227.209 116.973 233.966 116.509 233.966 108.428ZM237.676 131.016C237.676 125.253 235.026 119.292 225.156 119.292C224.891 119.292 224.626 119.292 224.361 119.292C220.386 119.292 219.194 119.358 219.194 120.881C219.194 124.591 219.194 129.427 219.26 131.414C219.525 138.701 220.32 141.748 226.679 141.748C233.171 141.748 237.676 136.78 237.676 131.016Z" fill="white"/>
<path d="M203.399 133.202C202.604 135.985 200.087 140.953 199.424 142.874C199.292 143.205 198.894 143.47 197.834 143.47C197.834 143.47 187.964 143.271 178.889 143.271C173.854 143.271 169.019 143.337 166.369 143.536H166.303C165.773 143.536 165.508 143.205 165.508 142.808C165.508 142.476 165.707 142.013 166.17 141.681C170.609 141.284 171.337 141.085 171.867 138.899C172.265 137.376 172.331 128.632 172.331 111.674C172.331 100.677 172.198 98.955 165.905 98.955C165.508 98.69 165.309 98.2263 165.309 97.8951C165.309 97.4314 165.508 97.1002 165.905 97.1002C165.972 97.1002 165.972 97.1002 166.038 97.1002C167.76 97.2989 170.94 97.3652 174.583 97.3652C182.797 97.3652 193.462 97.0339 195.052 97.0339C195.185 97.0339 195.251 97.0339 195.251 97.0339C195.582 97.0339 196.443 97.0339 196.443 97.6964V97.7626C196.443 98.0276 196.377 98.2925 196.377 98.6238C196.377 100.545 196.841 103.194 196.841 105.381C196.841 105.513 196.841 105.645 196.841 105.778C196.841 106.308 196.311 106.573 195.847 106.573C195.582 106.573 195.317 106.507 195.251 106.308C192.601 99.6836 190.15 99.0212 183.128 99.0212C181.539 99.0212 180.148 99.0875 178.889 99.3524C177.034 99.5512 177.034 101.87 177.034 110.349C177.034 112.402 177.1 114.588 177.1 116.509C177.1 117.503 177.962 117.635 181.141 117.635C182.135 117.635 182.996 117.569 183.923 117.437C186.043 117.238 189.819 117.768 190.879 111.806C190.945 111.409 191.475 111.144 191.939 111.144C192.402 111.144 192.8 111.342 192.8 111.872C192.8 111.872 192.8 111.939 192.8 112.005C192.535 113.661 192.469 115.781 192.469 117.834C192.469 121.941 192.8 125.849 192.8 125.849C192.8 125.849 192.8 125.849 192.8 125.916C192.8 126.313 192.402 126.446 191.939 126.446C191.409 126.446 190.945 126.247 190.879 125.849C190.415 119.689 185.778 119.556 180.942 119.556C177.233 119.556 177.1 119.556 177.1 120.749C177.1 121.411 177.1 122.537 177.1 123.862C177.1 139.032 177.1 140.224 183.857 141.416C184.52 141.549 185.248 141.615 186.176 141.615C192.535 141.615 197.106 139.694 201.809 132.606C201.941 132.407 202.14 132.275 202.339 132.275C202.869 132.275 203.399 132.739 203.399 133.136V133.202Z" fill="white"/>
<path d="M157.777 120.086C157.777 132.739 148.635 143.47 132.605 143.47C128.696 143.47 122.867 143.006 117.567 143.006C115.117 143.006 112.732 143.139 110.678 143.404C110.612 143.404 110.612 143.404 110.546 143.404C110.281 143.404 110.082 143.139 110.082 142.808C110.082 142.41 110.347 141.88 110.811 141.549C115.183 141.152 115.779 140.29 116.375 138.502C117.038 136.183 117.038 124.061 117.038 114.588C116.971 111.475 117.038 104.784 116.574 102.598C116.243 101.34 116.176 99.6175 111.274 99.6175C110.877 99.3525 110.745 98.9551 110.745 98.5576C110.745 98.2264 110.943 97.8952 111.274 97.8952H111.341C112.599 98.0277 113.924 98.0277 115.249 98.0277C121.145 98.0277 127.106 97.1665 131.942 97.1665C145.721 97.1665 157.777 104.387 157.777 120.086ZM151.947 121.08C151.947 105.182 140.289 99.0875 130.816 99.0875C124.258 99.0875 122.734 99.75 122.337 101.87C122.072 103.393 121.807 105.314 121.807 122.074C121.807 125.585 121.873 128.698 121.873 130.42C121.873 130.685 121.873 131.016 121.873 131.348C121.873 136.647 121.94 141.615 132.406 141.615C140.62 141.615 151.947 137.376 151.947 121.08Z" fill="white"/>
<path d="M440.148 36.6569C440.148 46.5933 434.877 53.0736 430.168 55.8817C430.125 55.8817 430.082 55.9249 430.038 55.9249C429.693 55.9249 429.261 55.4929 429.261 55.1905C429.261 55.1473 429.304 55.0608 429.39 55.0176C433.192 52.728 437.08 45.4269 437.08 36.6569C437.08 28.319 433.235 20.9315 429.39 18.6851C429.304 18.6419 429.304 18.5555 429.304 18.5122C429.304 18.2098 429.65 17.7346 429.995 17.7346C430.082 17.7346 430.125 17.7346 430.168 17.7778C434.877 20.6291 440.148 27.023 440.148 36.6569Z" fill="white"/>
<path d="M425.14 49.6175C425.356 49.7903 425.442 50.0495 425.442 50.2655C425.442 50.5247 425.313 50.6975 425.053 50.6975C425.01 50.6975 422.375 50.4815 419.912 50.4815C418.659 50.4815 417.45 50.5247 416.672 50.6975C416.629 50.6975 416.629 50.6975 416.586 50.6975C416.327 50.6975 416.24 50.5247 416.24 50.3087C416.24 50.0927 416.37 49.7903 416.586 49.6175C419.394 49.4015 419.48 48.3646 419.48 42.878C419.48 41.7116 419.48 40.0267 419.437 39.3787C419.264 36.1818 417.104 35.1881 415.419 35.1881C412.309 35.1881 410.754 37.2618 410.624 38.4714C410.538 39.5083 410.494 40.3291 410.494 44.1309C410.538 45.1677 410.494 46.5069 410.667 47.6734C410.84 48.9694 411.661 49.6175 413.562 49.6175C413.734 49.7903 413.821 50.0063 413.821 50.2223C413.821 50.4815 413.691 50.6975 413.475 50.6975C413.475 50.6975 410.926 50.5247 408.464 50.5247C407.211 50.5247 406.001 50.5679 405.094 50.6975H405.051C404.878 50.6975 404.749 50.5247 404.749 50.2655C404.749 50.0495 404.835 49.8335 405.051 49.6175C407.557 49.2719 407.6 48.883 407.773 43.8284C407.773 39.5515 407.773 39.5515 407.773 39.5515C407.773 37.0458 407.773 35.8793 405.829 35.4905C405.613 35.4473 405.483 35.2313 405.483 35.0153C405.483 34.7993 405.613 34.5833 405.785 34.5401C407.513 34.2377 408.982 33.3736 409.976 32.8984C410.062 32.8552 410.106 32.8552 410.149 32.8552C410.322 32.8552 410.408 33.028 410.408 33.4168C410.408 33.8921 410.365 34.8425 410.365 35.5769C410.365 35.7497 410.365 35.9225 410.365 36.0953C410.365 36.1818 410.408 36.2682 410.494 36.2682C410.538 36.2682 410.581 36.225 410.624 36.1818C412.957 33.46 415.117 33.2008 416.413 33.2008C419.61 33.2008 422.202 35.0153 422.332 38.7738V44.1309C422.332 48.3214 422.461 49.3583 425.14 49.6175Z" fill="white"/>
<path d="M400.461 42.3165C400.461 47.1118 397.135 51.3024 391.562 51.3024C385.902 51.3024 382.662 47.0686 382.662 42.3165C382.662 37.2619 386.464 33.1577 391.648 33.1577C397.092 33.1577 400.461 37.2619 400.461 42.3165ZM397.135 43.0077C397.135 40.3724 396.228 34.1514 391.432 34.1514C387.717 34.1514 385.946 37.6939 385.946 41.4092C385.946 42.7917 386.291 50.2224 391.908 50.2224C396.184 50.2224 397.135 46.1182 397.135 43.0077Z" fill="white"/>
<path d="M378.886 20.3701C378.973 20.3701 379.102 20.7157 379.102 21.0181C379.102 21.2773 379.059 21.4933 378.843 21.6229C376.165 21.9254 374.35 22.703 374.091 25.0791C373.918 26.8503 373.875 29.4424 373.875 32.2505C373.875 35.7499 373.961 39.5948 374.048 42.5325C374.177 47.4575 374.048 49.0992 377.763 49.4448C377.936 49.6176 378.109 49.9632 378.109 50.2656C378.109 50.5249 377.979 50.6977 377.633 50.6977C377.633 50.6977 374.436 50.4384 371.196 50.4384C369.598 50.4384 367.999 50.5248 366.79 50.6977C366.747 50.6977 366.703 50.6977 366.703 50.6977C366.401 50.6977 366.228 50.5249 366.228 50.3088C366.228 50.0496 366.401 49.7472 366.703 49.4448C370.246 48.9696 370.764 48.5808 370.764 44.4766C370.764 44.0878 370.764 43.6558 370.764 43.1806C370.721 41.1501 370.678 37.5212 370.678 34.065C370.678 31.0409 370.721 28.1896 370.807 26.6775C370.807 26.5047 370.764 26.4183 370.678 26.4183C370.462 26.4183 363.463 40.1133 359.575 48.7104C359.013 50.0064 358.797 50.352 358.106 50.352C358.063 50.352 358.063 50.352 358.063 50.352C357.588 50.352 357.415 49.8768 357.156 49.0128C356.681 47.2415 354.952 43.5694 352.965 39.4652C350.892 35.0587 348.904 31.3001 347.263 27.2392C347.047 26.6775 346.917 26.4615 346.831 26.4615C346.442 26.4615 345.88 40.1133 345.88 40.8477C345.923 49.0128 346.183 48.9696 349.552 49.4448C349.811 49.704 349.898 49.9632 349.898 50.2224C349.898 50.4817 349.725 50.6545 349.466 50.6977C349.423 50.6977 346.701 50.3952 343.85 50.3952C342.424 50.3952 340.998 50.4816 339.832 50.6977C339.789 50.6977 339.789 50.6977 339.746 50.6977C339.53 50.6977 339.4 50.5249 339.4 50.2656C339.4 50.0496 339.529 49.704 339.789 49.4448C343.418 49.0992 343.893 47.5871 344.238 41.3229C344.325 39.2492 344.93 29.9177 345.275 25.9863C345.275 25.7271 345.319 25.5111 345.319 25.2951C345.319 22.1846 343.331 21.8822 340.264 21.5797C340.048 21.3637 339.918 21.1045 339.918 20.8453C339.918 20.5429 340.091 20.2837 340.566 20.2837C340.566 20.2837 342.986 20.4997 345.319 20.4997C346.226 20.4997 347.133 20.4565 347.867 20.3701C347.911 20.3701 347.954 20.3701 347.997 20.3701C348.213 20.3701 348.256 20.4565 348.299 20.8453C348.343 21.3637 349.163 23.2646 349.466 24.0422C352.879 32.769 357.717 40.3293 359.273 44.6926C359.316 44.8654 359.359 44.995 359.402 44.995C359.402 44.995 359.445 44.9086 359.532 44.8222C368.431 27.4984 370.592 23.1782 370.98 21.4069C371.11 20.9317 371.283 20.5861 371.542 20.5429C371.542 20.5429 372.881 20.5861 374.523 20.5861C375.992 20.5861 377.72 20.5429 378.886 20.3701Z" fill="white"/>
<path d="M335.775 55.0176C335.861 55.0608 335.905 55.1473 335.905 55.1905C335.905 55.4929 335.473 55.9249 335.084 55.9249C335.041 55.9249 334.997 55.8817 334.954 55.8817C330.288 53.0736 325.018 46.5933 325.018 36.6569C325.018 27.023 330.288 20.6291 334.954 17.7778C334.997 17.7346 335.084 17.7346 335.127 17.7346C335.473 17.7346 335.861 18.2098 335.861 18.5122C335.861 18.5555 335.861 18.6419 335.775 18.6851C331.93 20.9315 328.085 28.319 328.085 36.6569C328.085 45.4269 331.93 52.728 335.775 55.0176Z" fill="white"/>
<path d="M315.925 41.1961C314.997 46.1643 314.136 47.8866 313.871 49.8076C313.805 49.9401 313.672 50.3376 313.275 50.47C313.275 50.47 306.916 50.2051 300.026 50.2051C296.184 50.2051 292.21 50.2713 289.03 50.5363C288.5 50.5363 287.109 49.7414 287.109 49.0789C287.109 48.9465 287.242 48.814 287.44 48.6815C293.137 45.4356 309.367 28.2125 309.367 15.8252C309.367 11.9169 307.777 8.53851 302.477 8.53851C298.039 8.53851 294.462 11.7182 292.011 16.0902C291.812 16.4876 291.481 16.6863 291.15 16.6863C290.62 16.6863 290.156 16.2226 290.156 15.6927C290.156 15.6927 293.866 4.1665 303.604 4.1665C310.559 4.1665 314.865 9.20093 314.865 15.8252C314.865 19.4023 313.672 23.3768 311.023 27.2852C306.584 33.9094 299.496 39.3413 295.853 45.1044C295.787 45.2369 295.721 45.3031 295.721 45.3694C295.721 45.7006 296.118 45.9655 296.383 46.098C297.973 46.2305 299.298 46.363 301.02 46.363C307.313 46.363 312.546 46.0318 314.467 40.7986C314.534 40.6661 314.732 40.5999 314.931 40.5999C315.395 40.5999 315.925 40.7986 315.925 41.1298C315.925 41.1961 315.925 41.1961 315.925 41.1961Z" fill="white"/>
<path d="M280.562 27.55C280.562 40.0699 275.792 51.2649 267.181 51.2649C257.576 51.2649 253.469 40.4011 253.469 27.8813C253.469 15.2952 258.437 4.23267 266.784 4.23267C276.057 4.23267 280.562 15.0964 280.562 27.55ZM275.064 27.7488C275.064 16.9512 273.739 5.82249 266.784 5.82249C260.888 5.82249 258.901 17.0837 258.901 27.815C258.901 38.1488 260.225 49.5426 267.247 49.5426C273.275 49.5426 275.064 38.1488 275.064 27.7488Z" fill="white"/>
<path d="M243.537 47.4229C243.537 49.4764 241.881 51.1325 239.894 51.1325C237.84 51.1325 236.184 49.4764 236.184 47.4229C236.184 45.4356 237.84 43.7795 239.828 43.7795C241.881 43.7795 243.537 45.4356 243.537 47.4229Z" fill="white"/>
<path d="M225.927 19.2697H225.861C225.861 19.6672 225.861 20.0646 225.861 20.3958C225.861 46.2304 202.08 55.3057 201.02 55.3057C200.49 55.3057 200.225 54.7757 200.225 54.312C200.225 53.7821 200.424 53.3184 200.888 53.1197C212.083 49.3438 220.827 35.5654 220.827 20.4621C220.827 15.3614 219.171 5.88873 212.215 5.88873C207.645 5.88873 203.869 10.1945 203.869 17.7461C203.869 23.178 206.452 28.2787 211.023 28.2787C213.01 28.2787 215.064 27.2188 216.918 25.0991C217.117 24.9003 217.316 24.7679 217.515 24.7679C218.045 24.7679 218.508 25.2316 218.508 25.894C218.508 27.2188 214.931 31.0609 210.096 31.0609C204.73 31.0609 198.901 26.7551 198.901 18.0774C198.901 11.8506 203.604 4.23267 212.414 4.23267C222.019 4.23267 225.729 13.3079 225.927 19.2697Z" fill="white"/>
<path d="M190.697 27.55C190.697 40.0699 185.928 51.2649 177.316 51.2649C167.711 51.2649 163.604 40.4011 163.604 27.8813C163.604 15.2952 168.572 4.23267 176.919 4.23267C186.193 4.23267 190.697 15.0964 190.697 27.55ZM185.199 27.7488C185.199 16.9512 183.874 5.82249 176.919 5.82249C171.023 5.82249 169.036 17.0837 169.036 27.815C169.036 38.1488 170.361 49.5426 177.383 49.5426C183.411 49.5426 185.199 38.1488 185.199 27.7488Z" fill="white"/>
<path d="M153.672 47.4229C153.672 49.4764 152.016 51.1325 150.029 51.1325C147.976 51.1325 146.319 49.4764 146.319 47.4229C146.319 45.4356 147.976 43.7795 149.963 43.7795C152.016 43.7795 153.672 45.4356 153.672 47.4229Z" fill="white"/>
<path d="M137.851 35.5655C137.52 36.8903 137.454 37.0891 135.069 37.0891C134.142 37.0891 132.817 37.0891 131.492 37.0228C131.359 37.0228 131.095 37.1553 131.095 37.4203C131.095 37.9502 131.161 39.2088 131.161 39.805C131.426 45.4356 130.498 47.9528 136.394 48.549C136.725 48.8802 136.858 49.3439 136.858 49.7414C136.858 50.1388 136.659 50.4701 136.129 50.4701C136.063 50.4701 132.221 49.9401 127.915 49.9401C125.729 49.9401 123.477 50.0726 121.489 50.4701C121.423 50.4701 121.357 50.4701 121.291 50.4701C120.959 50.4701 120.694 50.2051 120.694 49.8076C120.694 49.4102 120.893 48.9465 121.357 48.549C126.59 47.9528 126.59 46.8267 126.59 38.5464C126.59 37.0228 126.458 36.9566 126.259 36.9566C125.398 36.8903 123.874 36.8903 122.152 36.8903C118.31 36.8903 113.275 37.0228 111.288 37.6852C110.758 37.8177 110.361 37.9502 109.963 37.9502C109.566 37.9502 106.982 37.2216 106.982 36.0292C106.982 35.4992 107.578 34.9031 108.175 34.3069C110.626 31.8559 115.13 24.7017 119.568 17.3488C123.742 10.4596 127.517 3.83531 128.71 1.84804C129.571 0.258216 130.83 0.125732 133.148 0.125732C134.009 0.191974 134.407 0.589427 134.407 1.18561C134.407 1.51682 134.208 1.91428 133.943 2.31174C131.095 6.08756 128.445 10.0621 126.126 13.8379C121.423 21.2571 117.515 26.8877 113.275 32.9158C113.077 33.247 112.812 33.7107 112.812 34.1082C112.812 34.5056 113.077 34.8368 113.871 34.8368C113.938 34.8368 114.07 34.8368 114.136 34.8368C118.376 34.5719 122.814 34.5719 126.325 34.4394C126.458 34.4394 126.59 34.3731 126.59 34.0419C126.59 33.7107 126.59 32.982 126.59 32.0546C126.59 29.2724 126.524 24.503 126.391 22.2507C126.391 22.1183 126.391 21.9858 126.391 21.8533C126.391 19.601 130.3 18.3424 130.763 18.3424C131.161 18.3424 131.624 18.5412 131.624 19.0049C131.624 19.0711 131.624 19.1373 131.624 19.2036C131.161 20.9259 131.095 32.5183 131.095 34.0419C131.095 34.1744 131.227 34.3731 131.359 34.3731H131.426C131.956 34.3731 133.214 34.2406 135.996 33.9094C136.593 33.8432 136.99 33.7769 137.321 33.7769C137.785 33.7769 138.05 33.9094 138.05 34.4394C138.05 34.7043 137.984 35.1018 137.851 35.5655Z" fill="white"/>
<path d="M100.634 41.1961C99.7064 46.1643 98.8453 47.8866 98.5803 49.8076C98.514 49.9401 98.3816 50.3376 97.9841 50.47C97.9841 50.47 91.6248 50.2051 84.7356 50.2051C80.8935 50.2051 76.919 50.2713 73.7393 50.5363C73.2094 50.5363 71.8183 49.7414 71.8183 49.0789C71.8183 48.9465 71.9508 48.814 72.1495 48.6815C77.8464 45.4356 94.0758 28.2125 94.0758 15.8252C94.0758 11.9169 92.486 8.53851 87.1866 8.53851C82.7483 8.53851 79.1712 11.7182 76.7202 16.0902C76.5215 16.4876 76.1903 16.6863 75.8591 16.6863C75.3292 16.6863 74.8655 16.2226 74.8655 15.6927C74.8655 15.6927 78.575 4.1665 88.3127 4.1665C95.2682 4.1665 99.5739 9.20093 99.5739 15.8252C99.5739 19.4023 98.3816 23.3768 95.7319 27.2852C91.2936 33.9094 84.2056 39.3413 80.5623 45.1044C80.4961 45.2369 80.4298 45.3031 80.4298 45.3694C80.4298 45.7006 80.8273 45.9655 81.0923 46.098C82.6821 46.2305 84.0069 46.363 85.7292 46.363C92.0223 46.363 97.2554 46.0318 99.1765 40.7986C99.2427 40.6661 99.4414 40.5999 99.6402 40.5999C100.104 40.5999 100.634 40.7986 100.634 41.1298C100.634 41.1961 100.634 41.1961 100.634 41.1961Z" fill="white"/>
<path d="M65.2712 27.55C65.2712 40.0699 60.5017 51.2649 51.8902 51.2649C42.285 51.2649 38.178 40.4011 38.178 27.8813C38.178 15.2952 43.1462 4.23267 51.4927 4.23267C60.7667 4.23267 65.2712 15.0964 65.2712 27.55ZM59.773 27.7488C59.773 16.9512 58.4482 5.82249 51.4927 5.82249C45.5971 5.82249 43.6099 17.0837 43.6099 27.815C43.6099 38.1488 44.9347 49.5426 51.9564 49.5426C57.9845 49.5426 59.773 38.1488 59.773 27.7488Z" fill="white"/>
<path d="M29.5111 41.1961C28.5837 46.1643 27.7225 47.8866 27.4575 49.8076C27.3913 49.9401 27.2588 50.3376 26.8614 50.47C26.8614 50.47 20.5021 50.2051 13.6129 50.2051C9.77078 50.2051 5.79623 50.2713 2.61659 50.5363C2.08665 50.5363 0.695557 49.7414 0.695557 49.0789C0.695557 48.9465 0.828042 48.814 1.02677 48.6815C6.72363 45.4356 22.9531 28.2125 22.9531 15.8252C22.9531 11.9169 21.3632 8.53851 16.0638 8.53851C11.6256 8.53851 8.04848 11.7182 5.5975 16.0902C5.39878 16.4876 5.06756 16.6863 4.73635 16.6863C4.20641 16.6863 3.74271 16.2226 3.74271 15.6927C3.74271 15.6927 7.4523 4.1665 17.19 4.1665C24.1454 4.1665 28.4512 9.20093 28.4512 15.8252C28.4512 19.4023 27.2588 23.3768 24.6091 27.2852C20.1709 33.9094 13.0829 39.3413 9.43957 45.1044C9.37333 45.2369 9.30709 45.3031 9.30709 45.3694C9.30709 45.7006 9.70454 45.9655 9.96951 46.098C11.5593 46.2305 12.8842 46.363 14.6065 46.363C20.8995 46.363 26.1327 46.0318 28.0537 40.7986C28.12 40.6661 28.3187 40.5999 28.5174 40.5999C28.9811 40.5999 29.5111 40.7986 29.5111 41.1298C29.5111 41.1961 29.5111 41.1961 29.5111 41.1961Z" fill="white"/>
</svg>
